<svg width="850" height="470" viewBox="0 0 850 470" fill="none" xmlns="http://www.w3.org/2000/svg">
<rect width="850" height="470" rx="5" fill="white"/>
<path d="M28.991 118.649V127H27.367V118.649H24.469V117.34H31.959L31.791 118.649H28.991ZM39.2895 125.187C39.2895 125.481 39.3339 125.693 39.4225 125.824C39.5112 125.955 39.6535 126.053 39.8495 126.118L39.4995 127.182C39.1355 127.14 38.8205 127.04 38.5545 126.881C38.2932 126.722 38.0972 126.482 37.9665 126.16C37.6959 126.505 37.3529 126.764 36.9375 126.937C36.5222 127.105 36.0789 127.189 35.6075 127.189C34.8562 127.189 34.2635 126.979 33.8295 126.559C33.3955 126.134 33.1785 125.579 33.1785 124.893C33.1785 124.114 33.4819 123.514 34.0885 123.094C34.6952 122.674 35.5632 122.464 36.6925 122.464H37.7495V121.981C37.7495 121.5 37.6049 121.157 37.3155 120.952C37.0262 120.742 36.6225 120.637 36.1045 120.637C35.8619 120.637 35.5679 120.67 35.2225 120.735C34.8772 120.796 34.5155 120.891 34.1375 121.022L33.7525 119.916C34.2145 119.743 34.6672 119.617 35.1105 119.538C35.5539 119.454 35.9645 119.412 36.3425 119.412C37.3319 119.412 38.0692 119.631 38.5545 120.07C39.0445 120.509 39.2895 121.115 39.2895 121.89V125.187ZM36.0835 126.034C36.4009 126.034 36.7112 125.95 37.0145 125.782C37.3179 125.614 37.5629 125.378 37.7495 125.075V123.444H36.8815C36.1442 123.444 35.6169 123.568 35.2995 123.815C34.9822 124.058 34.8235 124.394 34.8235 124.823C34.8235 125.63 35.2435 126.034 36.0835 126.034ZM42.1051 127V125.88H43.1901V120.721H42.1051V119.608H44.3871L44.6741 121.323C44.9494 120.702 45.2901 120.231 45.6961 119.909C46.1067 119.582 46.6341 119.419 47.2781 119.419C47.4974 119.419 47.6934 119.438 47.8661 119.475C48.0434 119.508 48.2184 119.552 48.3911 119.608L48.1251 122.331H47.0051V120.826C46.4824 120.845 46.0321 121.055 45.6541 121.456C45.2761 121.853 44.9774 122.413 44.7581 123.136V125.88H46.2491V127H42.1051ZM51.7316 123.808C51.7783 124.569 51.9906 125.119 52.3686 125.46C52.7513 125.801 53.2109 125.971 53.7476 125.971C54.1069 125.971 54.4406 125.915 54.7486 125.803C55.0613 125.691 55.3739 125.532 55.6866 125.327L56.3656 126.265C56.0203 126.545 55.6166 126.769 55.1546 126.937C54.6926 127.105 54.1979 127.189 53.6706 127.189C52.9006 127.189 52.2496 127.026 51.7176 126.699C51.1903 126.372 50.7889 125.917 50.5136 125.334C50.2429 124.751 50.1076 124.076 50.1076 123.311C50.1076 122.569 50.2429 121.906 50.5136 121.323C50.7843 120.735 51.1716 120.271 51.6756 119.93C52.1796 119.585 52.7816 119.412 53.4816 119.412C54.4616 119.412 55.2363 119.741 55.8056 120.399C56.3796 121.057 56.6666 121.96 56.6666 123.108C56.6666 123.234 56.6619 123.36 56.6526 123.486C56.6479 123.607 56.6409 123.715 56.6316 123.808H51.7316ZM53.4956 120.574C53.0056 120.574 52.5996 120.749 52.2776 121.099C51.9556 121.449 51.7713 121.995 51.7246 122.737H55.1476C55.1336 122.042 54.9843 121.507 54.6996 121.134C54.4196 120.761 54.0183 120.574 53.4956 120.574ZM63.3181 116.465C63.7708 116.465 64.1745 116.505 64.5291 116.584C64.8885 116.659 65.2198 116.761 65.5231 116.892L65.0611 117.977C64.8138 117.874 64.5548 117.8 64.2841 117.753C64.0181 117.706 63.7475 117.683 63.4721 117.683C62.5201 117.683 62.0441 118.066 62.0441 118.831V120.14H64.5151L64.3471 121.295H62.0441V127H60.4831V121.295H58.8031V120.14H60.4831V118.817C60.4831 118.117 60.7421 117.55 61.2601 117.116C61.7781 116.682 62.4641 116.465 63.3181 116.465ZM72.8677 125.187C72.8677 125.481 72.912 125.693 73.0007 125.824C73.0893 125.955 73.2317 126.053 73.4277 126.118L73.0777 127.182C72.7137 127.14 72.3987 127.04 72.1327 126.881C71.8713 126.722 71.6753 126.482 71.5447 126.16C71.274 126.505 70.931 126.764 70.5157 126.937C70.1003 127.105 69.657 127.189 69.1857 127.189C68.4343 127.189 67.8417 126.979 67.4077 126.559C66.9737 126.134 66.7567 125.579 66.7567 124.893C66.7567 124.114 67.06 123.514 67.6667 123.094C68.2733 122.674 69.1413 122.464 70.2707 122.464H71.3277V121.981C71.3277 121.5 71.183 121.157 70.8937 120.952C70.6043 120.742 70.2007 120.637 69.6827 120.637C69.44 120.637 69.146 120.67 68.8007 120.735C68.4553 120.796 68.0937 120.891 67.7157 121.022L67.3307 119.916C67.7927 119.743 68.2453 119.617 68.6887 119.538C69.132 119.454 69.5427 119.412 69.9207 119.412C70.91 119.412 71.6473 119.631 72.1327 120.07C72.6227 120.509 72.8677 121.115 72.8677 121.89V125.187ZM69.6617 126.034C69.979 126.034 70.2893 125.95 70.5927 125.782C70.896 125.614 71.141 125.378 71.3277 125.075V123.444H70.4597C69.7223 123.444 69.195 123.568 68.8777 123.815C68.5603 124.058 68.4017 124.394 68.4017 124.823C68.4017 125.63 68.8217 126.034 69.6617 126.034ZM90.1817 125.768V127H84.3367V125.768H86.6957V118.95L84.5677 120.259L83.8957 119.16L86.8637 117.34H88.2497V125.768H90.1817ZM105.137 116.465L106.705 116.64V127H105.326L105.214 126.09C104.962 126.44 104.661 126.711 104.311 126.902C103.961 127.093 103.569 127.189 103.135 127.189C102.5 127.189 101.977 127.028 101.567 126.706C101.161 126.379 100.857 125.924 100.657 125.341C100.456 124.758 100.356 124.079 100.356 123.304C100.356 122.553 100.472 121.885 100.706 121.302C100.939 120.714 101.273 120.252 101.707 119.916C102.141 119.58 102.663 119.412 103.275 119.412C104.035 119.412 104.656 119.68 105.137 120.217V116.465ZM103.688 120.616C103.16 120.616 102.75 120.835 102.456 121.274C102.162 121.708 102.015 122.385 102.015 123.304C102.015 124.247 102.148 124.93 102.414 125.355C102.684 125.775 103.062 125.985 103.548 125.985C103.902 125.985 104.21 125.882 104.472 125.677C104.733 125.472 104.955 125.224 105.137 124.935V121.435C104.955 121.174 104.742 120.973 104.5 120.833C104.257 120.688 103.986 120.616 103.688 120.616ZM114.84 125.187C114.84 125.481 114.885 125.693 114.973 125.824C115.062 125.955 115.204 126.053 115.4 126.118L115.05 127.182C114.686 127.14 114.371 127.04 114.105 126.881C113.844 126.722 113.648 126.482 113.517 126.16C113.247 126.505 112.904 126.764 112.488 126.937C112.073 127.105 111.63 127.189 111.158 127.189C110.407 127.189 109.814 126.979 109.38 126.559C108.946 126.134 108.729 125.579 108.729 124.893C108.729 124.114 109.033 123.514 109.639 123.094C110.246 122.674 111.114 122.464 112.243 122.464H113.3V121.981C113.3 121.5 113.156 121.157 112.866 120.952C112.577 120.742 112.173 120.637 111.655 120.637C111.413 120.637 111.119 120.67 110.773 120.735C110.428 120.796 110.066 120.891 109.688 121.022L109.303 119.916C109.765 119.743 110.218 119.617 110.661 119.538C111.105 119.454 111.515 119.412 111.893 119.412C112.883 119.412 113.62 119.631 114.105 120.07C114.595 120.509 114.84 121.115 114.84 121.89V125.187ZM111.634 126.034C111.952 126.034 112.262 125.95 112.565 125.782C112.869 125.614 113.114 125.378 113.3 125.075V123.444H112.432C111.695 123.444 111.168 123.568 110.85 123.815C110.533 124.058 110.374 124.394 110.374 124.823C110.374 125.63 110.794 126.034 111.634 126.034ZM132.588 122.121C132.588 123.12 132.458 123.939 132.196 124.578C131.935 125.217 131.587 125.712 131.153 126.062C130.719 126.412 130.236 126.657 129.704 126.797C129.172 126.932 128.638 127 128.101 127H125.735V117.34H127.94C128.528 117.34 129.098 117.403 129.648 117.529C130.204 117.655 130.701 117.888 131.139 118.229C131.583 118.565 131.935 119.048 132.196 119.678C132.458 120.303 132.588 121.118 132.588 122.121ZM130.88 122.121C130.88 121.351 130.803 120.733 130.649 120.266C130.5 119.799 130.299 119.445 130.047 119.202C129.795 118.959 129.513 118.796 129.2 118.712C128.888 118.628 128.57 118.586 128.248 118.586H127.359V125.768H128.255C128.591 125.768 128.916 125.714 129.228 125.607C129.541 125.5 129.821 125.313 130.068 125.047C130.32 124.781 130.519 124.412 130.663 123.941C130.808 123.465 130.88 122.858 130.88 122.121ZM137.322 115.989C137.63 115.989 137.877 116.082 138.064 116.269C138.255 116.456 138.351 116.689 138.351 116.969C138.351 117.249 138.255 117.485 138.064 117.676C137.877 117.867 137.63 117.963 137.322 117.963C137.023 117.963 136.778 117.867 136.587 117.676C136.396 117.485 136.3 117.249 136.3 116.969C136.3 116.689 136.396 116.456 136.587 116.269C136.778 116.082 137.023 115.989 137.322 115.989ZM138.414 119.608V125.852H140.423V127H134.634V125.852H136.846V120.756H134.704V119.608H138.414ZM145.457 125.985C145.947 125.985 146.337 125.899 146.626 125.726C146.916 125.549 147.06 125.306 147.06 124.998C147.06 124.797 147.018 124.627 146.934 124.487C146.85 124.347 146.682 124.216 146.43 124.095C146.178 123.974 145.796 123.848 145.282 123.717C144.797 123.591 144.37 123.442 144.001 123.269C143.637 123.096 143.355 122.872 143.154 122.597C142.954 122.322 142.853 121.967 142.853 121.533C142.853 120.898 143.117 120.387 143.644 120C144.176 119.608 144.897 119.412 145.807 119.412C146.428 119.412 146.969 119.494 147.431 119.657C147.893 119.82 148.288 120.023 148.614 120.266L147.956 121.253C147.667 121.062 147.35 120.905 147.004 120.784C146.664 120.663 146.279 120.602 145.849 120.602C145.35 120.602 144.991 120.677 144.771 120.826C144.557 120.975 144.449 121.174 144.449 121.421C144.449 121.608 144.503 121.762 144.61 121.883C144.722 122.004 144.914 122.119 145.184 122.226C145.455 122.333 145.838 122.455 146.332 122.59C146.813 122.721 147.231 122.875 147.585 123.052C147.945 123.229 148.222 123.465 148.418 123.759C148.619 124.048 148.719 124.426 148.719 124.893C148.719 125.425 148.565 125.861 148.257 126.202C147.949 126.538 147.548 126.788 147.053 126.951C146.559 127.11 146.027 127.189 145.457 127.189C144.771 127.189 144.179 127.091 143.679 126.895C143.18 126.694 142.76 126.445 142.419 126.146L143.252 125.194C143.542 125.427 143.873 125.619 144.246 125.768C144.62 125.913 145.023 125.985 145.457 125.985ZM154.727 125.901C155.072 125.901 155.394 125.84 155.693 125.719C155.992 125.598 156.276 125.444 156.547 125.257L157.275 126.265C156.953 126.54 156.561 126.764 156.099 126.937C155.642 127.105 155.168 127.189 154.678 127.189C153.922 127.189 153.273 127.03 152.732 126.713C152.195 126.391 151.785 125.943 151.5 125.369C151.22 124.79 151.08 124.114 151.08 123.339C151.08 122.588 151.222 121.918 151.507 121.33C151.796 120.737 152.212 120.271 152.753 119.93C153.294 119.585 153.945 119.412 154.706 119.412C155.695 119.412 156.549 119.708 157.268 120.301L156.547 121.288C156.258 121.087 155.961 120.936 155.658 120.833C155.355 120.726 155.047 120.672 154.734 120.672C154.146 120.672 153.668 120.887 153.299 121.316C152.93 121.745 152.746 122.42 152.746 123.339C152.746 124.263 152.933 124.921 153.306 125.313C153.679 125.705 154.153 125.901 154.727 125.901ZM162.506 115.989C162.814 115.989 163.061 116.082 163.248 116.269C163.439 116.456 163.535 116.689 163.535 116.969C163.535 117.249 163.439 117.485 163.248 117.676C163.061 117.867 162.814 117.963 162.506 117.963C162.207 117.963 161.962 117.867 161.771 117.676C161.579 117.485 161.484 117.249 161.484 116.969C161.484 116.689 161.579 116.456 161.771 116.269C161.962 116.082 162.207 115.989 162.506 115.989ZM163.598 119.608V125.852H165.607V127H159.818V125.852H162.03V120.756H159.888V119.608H163.598ZM171.558 119.412C172.211 119.412 172.734 119.573 173.126 119.895C173.518 120.212 173.803 120.663 173.98 121.246C174.157 121.825 174.246 122.506 174.246 123.29C174.246 124.041 174.139 124.711 173.924 125.299C173.709 125.887 173.39 126.349 172.965 126.685C172.545 127.021 172.022 127.189 171.397 127.189C170.622 127.189 169.997 126.916 169.521 126.37V129.842L167.953 130.017V119.608H169.318L169.416 120.56C169.696 120.182 170.02 119.897 170.389 119.706C170.758 119.51 171.147 119.412 171.558 119.412ZM171.124 120.623C170.774 120.623 170.464 120.728 170.193 120.938C169.927 121.148 169.703 121.395 169.521 121.68V125.138C169.89 125.689 170.377 125.964 170.984 125.964C171.511 125.964 171.913 125.752 172.188 125.327C172.463 124.902 172.601 124.226 172.601 123.297C172.601 122.35 172.477 121.668 172.23 121.253C171.987 120.833 171.619 120.623 171.124 120.623ZM179.596 116.64V124.984C179.596 125.325 179.698 125.567 179.904 125.712C180.114 125.852 180.384 125.922 180.716 125.922C180.926 125.922 181.126 125.901 181.318 125.859C181.514 125.812 181.703 125.752 181.885 125.677L182.284 126.769C182.064 126.881 181.794 126.979 181.472 127.063C181.154 127.147 180.79 127.189 180.38 127.189C179.638 127.189 179.059 126.979 178.644 126.559C178.233 126.139 178.028 125.567 178.028 124.844V117.795H175.795V116.64H179.596ZM187.689 115.989C187.997 115.989 188.244 116.082 188.431 116.269C188.622 116.456 188.718 116.689 188.718 116.969C188.718 117.249 188.622 117.485 188.431 117.676C188.244 117.867 187.997 117.963 187.689 117.963C187.39 117.963 187.145 117.867 186.954 117.676C186.763 117.485 186.667 117.249 186.667 116.969C186.667 116.689 186.763 116.456 186.954 116.269C187.145 116.082 187.39 115.989 187.689 115.989ZM188.781 119.608V125.852H190.79V127H185.001V125.852H187.213V120.756H185.071V119.608H188.781ZM193.137 127V119.608H194.488L194.607 120.567C194.915 120.194 195.279 119.909 195.699 119.713C196.119 119.512 196.55 119.412 196.994 119.412C197.684 119.412 198.2 119.606 198.541 119.993C198.886 120.38 199.059 120.919 199.059 121.61V127H197.491V122.387C197.491 121.748 197.425 121.293 197.295 121.022C197.169 120.747 196.882 120.609 196.434 120.609C196.074 120.609 195.745 120.721 195.447 120.945C195.153 121.164 194.905 121.414 194.705 121.694V127H193.137ZM207.18 125.187C207.18 125.481 207.224 125.693 207.313 125.824C207.402 125.955 207.544 126.053 207.74 126.118L207.39 127.182C207.026 127.14 206.711 127.04 206.445 126.881C206.184 126.722 205.988 126.482 205.857 126.16C205.586 126.505 205.243 126.764 204.828 126.937C204.413 127.105 203.969 127.189 203.498 127.189C202.747 127.189 202.154 126.979 201.72 126.559C201.286 126.134 201.069 125.579 201.069 124.893C201.069 124.114 201.372 123.514 201.979 123.094C202.586 122.674 203.454 122.464 204.583 122.464H205.64V121.981C205.64 121.5 205.495 121.157 205.206 120.952C204.917 120.742 204.513 120.637 203.995 120.637C203.752 120.637 203.458 120.67 203.113 120.735C202.768 120.796 202.406 120.891 202.028 121.022L201.643 119.916C202.105 119.743 202.558 119.617 203.001 119.538C203.444 119.454 203.855 119.412 204.233 119.412C205.222 119.412 205.96 119.631 206.445 120.07C206.935 120.509 207.18 121.115 207.18 121.89V125.187ZM203.974 126.034C204.291 126.034 204.602 125.95 204.905 125.782C205.208 125.614 205.453 125.378 205.64 125.075V123.444H204.772C204.035 123.444 203.507 123.568 203.19 123.815C202.873 124.058 202.714 124.394 202.714 124.823C202.714 125.63 203.134 126.034 203.974 126.034ZM224.494 125.768V127H218.649V125.768H221.008V118.95L218.88 120.259L218.208 119.16L221.176 117.34H222.562V125.768H224.494Z" fill="black"/>
<path d="M31.28 87.8185C31.28 88.5162 31.1305 89.0795 30.8315 89.5085C30.5368 89.9332 30.1273 90.243 29.603 90.438C29.0787 90.633 28.4785 90.7305 27.8025 90.7305H26.6845V94H25.391V85.043H27.7635C28.8555 85.043 29.7135 85.2705 30.3375 85.7255C30.9658 86.1762 31.28 86.8738 31.28 87.8185ZM29.915 87.8315C29.915 87.1728 29.7243 86.7092 29.343 86.4405C28.966 86.1718 28.4807 86.0375 27.887 86.0375H26.6845V89.7165H27.8675C28.2662 89.7165 28.6193 89.6602 28.927 89.5475C29.2347 89.4348 29.4752 89.242 29.6485 88.969C29.8262 88.696 29.915 88.3168 29.915 87.8315ZM33.1014 94V93.077H34.1414V88.072H33.1014V87.149H35.0969L35.3244 88.7545C35.5844 88.1868 35.9029 87.7513 36.2799 87.448C36.6613 87.1403 37.1553 86.9865 37.7619 86.9865C37.9613 86.9865 38.1368 87.0017 38.2884 87.032C38.4444 87.0623 38.6026 87.1013 38.7629 87.149L38.5679 89.554H37.6059V88.124H37.5994C36.5724 88.124 35.8358 88.8585 35.3894 90.3275V93.077H36.7804V94H33.1014ZM43.5028 86.9865C44.4822 86.9865 45.2253 87.3115 45.7323 87.9615C46.2437 88.6115 46.4993 89.4803 46.4993 90.568C46.4993 91.2743 46.3823 91.8983 46.1483 92.44C45.9187 92.9817 45.5807 93.4042 45.1343 93.7075C44.688 94.0108 44.1398 94.1625 43.4898 94.1625C42.5105 94.1625 41.763 93.8375 41.2473 93.1875C40.736 92.5375 40.4803 91.6687 40.4803 90.581C40.4803 89.8703 40.5952 89.2463 40.8248 88.709C41.0588 88.1673 41.399 87.7448 41.8453 87.4415C42.296 87.1382 42.8485 86.9865 43.5028 86.9865ZM43.5028 87.981C42.9395 87.981 42.5148 88.1933 42.2288 88.618C41.9428 89.0383 41.7998 89.6927 41.7998 90.581C41.7998 91.4607 41.9407 92.1128 42.2223 92.5375C42.504 92.9578 42.9265 93.168 43.4898 93.168C44.0532 93.168 44.4757 92.9578 44.7573 92.5375C45.039 92.1128 45.1798 91.4563 45.1798 90.568C45.1798 89.684 45.039 89.0318 44.7573 88.6115C44.4757 88.1912 44.0575 87.981 43.5028 87.981ZM52.7278 84.2435C53.1178 84.2435 53.4688 84.2782 53.7808 84.3475C54.0928 84.4125 54.3874 84.5057 54.6648 84.627L54.2748 85.524C54.0538 85.4243 53.8176 85.3528 53.5663 85.3095C53.3193 85.2618 53.0658 85.238 52.8058 85.238C51.8784 85.238 51.4148 85.6085 51.4148 86.3495V87.6625H53.7288L53.5923 88.6115H51.4148V94H50.1733V88.6115H48.5678V87.6625H50.1733V86.356C50.1733 85.9313 50.2816 85.5608 50.4983 85.2445C50.7193 84.9282 51.0204 84.6833 51.4018 84.51C51.7874 84.3323 52.2294 84.2435 52.7278 84.2435ZM57.4287 90.997C57.4634 91.751 57.667 92.2992 58.0397 92.6415C58.4167 92.9838 58.863 93.155 59.3787 93.155C59.721 93.155 60.0352 93.103 60.3212 92.999C60.6072 92.895 60.8975 92.7433 61.1922 92.544L61.7577 93.3305C61.437 93.5862 61.0665 93.7898 60.6462 93.9415C60.2259 94.0888 59.7904 94.1625 59.3397 94.1625C58.655 94.1625 58.0722 94.013 57.5912 93.714C57.1145 93.4107 56.7505 92.9903 56.4992 92.453C56.2522 91.9157 56.1287 91.2917 56.1287 90.581C56.1287 89.892 56.2522 89.2767 56.4992 88.735C56.7505 88.1933 57.1037 87.7665 57.5587 87.4545C58.0137 87.1425 58.5554 86.9865 59.1837 86.9865C60.0677 86.9865 60.7632 87.2898 61.2702 87.8965C61.7815 88.4988 62.0372 89.3243 62.0372 90.373C62.0372 90.49 62.035 90.6027 62.0307 90.711C62.0264 90.8193 62.0199 90.9147 62.0112 90.997H57.4287ZM59.1967 87.9615C58.707 87.9615 58.3019 88.1348 57.9812 88.4815C57.6605 88.8282 57.4764 89.3633 57.4287 90.087H60.8347C60.8217 89.3937 60.67 88.8672 60.3797 88.5075C60.0937 88.1435 59.6994 87.9615 59.1967 87.9615ZM66.6146 93.168C67.1129 93.168 67.5051 93.077 67.7911 92.895C68.0814 92.713 68.2266 92.466 68.2266 92.154C68.2266 91.9547 68.1876 91.7857 68.1096 91.647C68.0359 91.504 67.8799 91.374 67.6416 91.257C67.4076 91.1357 67.0523 91.0143 66.5756 90.893C66.1076 90.776 65.7003 90.6395 65.3536 90.4835C65.0113 90.3275 64.7448 90.1238 64.5541 89.8725C64.3678 89.6212 64.2746 89.2962 64.2746 88.8975C64.2746 88.3168 64.5173 87.8532 65.0026 87.5065C65.4879 87.1598 66.1314 86.9865 66.9331 86.9865C67.4964 86.9865 67.9861 87.0623 68.4021 87.214C68.8181 87.3613 69.1734 87.5433 69.4681 87.76L68.9351 88.5725C68.6708 88.3992 68.3804 88.2562 68.0641 88.1435C67.7521 88.0265 67.3838 87.968 66.9591 87.968C66.4521 87.968 66.0903 88.046 65.8736 88.202C65.6613 88.3537 65.5551 88.5552 65.5551 88.8065C65.5551 88.9972 65.6071 89.1553 65.7111 89.281C65.8194 89.4023 66.0036 89.515 66.2636 89.619C66.5236 89.7187 66.8833 89.8313 67.3426 89.957C67.7889 90.0783 68.1789 90.2213 68.5126 90.386C68.8463 90.5507 69.1041 90.7673 69.2861 91.036C69.4724 91.3003 69.5656 91.6492 69.5656 92.0825C69.5656 92.5722 69.4248 92.9708 69.1431 93.2785C68.8614 93.5818 68.4953 93.805 68.0446 93.948C67.5983 94.091 67.1216 94.1625 66.6146 94.1625C65.9906 94.1625 65.4533 94.0715 65.0026 93.8895C64.5563 93.7075 64.1814 93.4843 63.8781 93.22L64.5671 92.427C64.8314 92.648 65.1369 92.8278 65.4836 92.9665C65.8346 93.1008 66.2116 93.168 66.6146 93.168ZM74.4095 93.168C74.9079 93.168 75.3 93.077 75.586 92.895C75.8764 92.713 76.0215 92.466 76.0215 92.154C76.0215 91.9547 75.9825 91.7857 75.9045 91.647C75.8309 91.504 75.6749 91.374 75.4365 91.257C75.2025 91.1357 74.8472 91.0143 74.3705 90.893C73.9025 90.776 73.4952 90.6395 73.1485 90.4835C72.8062 90.3275 72.5397 90.1238 72.349 89.8725C72.1627 89.6212 72.0695 89.2962 72.0695 88.8975C72.0695 88.3168 72.3122 87.8532 72.7975 87.5065C73.2829 87.1598 73.9264 86.9865 74.728 86.9865C75.2914 86.9865 75.781 87.0623 76.197 87.214C76.613 87.3613 76.9684 87.5433 77.263 87.76L76.73 88.5725C76.4657 88.3992 76.1754 88.2562 75.859 88.1435C75.547 88.0265 75.1787 87.968 74.754 87.968C74.247 87.968 73.8852 88.046 73.6685 88.202C73.4562 88.3537 73.35 88.5552 73.35 88.8065C73.35 88.9972 73.402 89.1553 73.506 89.281C73.6144 89.4023 73.7985 89.515 74.0585 89.619C74.3185 89.7187 74.6782 89.8313 75.1375 89.957C75.5839 90.0783 75.9739 90.2213 76.3075 90.386C76.6412 90.5507 76.899 90.7673 77.081 91.036C77.2674 91.3003 77.3605 91.6492 77.3605 92.0825C77.3605 92.5722 77.2197 92.9708 76.938 93.2785C76.6564 93.5818 76.2902 93.805 75.8395 93.948C75.3932 94.091 74.9165 94.1625 74.4095 94.1625C73.7855 94.1625 73.2482 94.0715 72.7975 93.8895C72.3512 93.7075 71.9764 93.4843 71.673 93.22L72.362 92.427C72.6264 92.648 72.9319 92.8278 73.2785 92.9665C73.6295 93.1008 74.0065 93.168 74.4095 93.168ZM82.4775 86.9865C83.4568 86.9865 84.2 87.3115 84.707 87.9615C85.2183 88.6115 85.474 89.4803 85.474 90.568C85.474 91.2743 85.357 91.8983 85.123 92.44C84.8933 92.9817 84.5553 93.4042 84.109 93.7075C83.6626 94.0108 83.1145 94.1625 82.4645 94.1625C81.4851 94.1625 80.7376 93.8375 80.222 93.1875C79.7106 92.5375 79.455 91.6687 79.455 90.581C79.455 89.8703 79.5698 89.2463 79.7995 88.709C80.0335 88.1673 80.3736 87.7448 80.82 87.4415C81.2706 87.1382 81.8231 86.9865 82.4775 86.9865ZM82.4775 87.981C81.9141 87.981 81.4895 88.1933 81.2035 88.618C80.9175 89.0383 80.7745 89.6927 80.7745 90.581C80.7745 91.4607 80.9153 92.1128 81.197 92.5375C81.4786 92.9578 81.9011 93.168 82.4645 93.168C83.0278 93.168 83.4503 92.9578 83.732 92.5375C84.0136 92.1128 84.1545 91.4563 84.1545 90.568C84.1545 89.684 84.0136 89.0318 83.732 88.6115C83.4503 88.1912 83.0321 87.981 82.4775 87.981ZM87.6659 94V93.077H88.7059V88.072H87.6659V87.149H89.6614L89.8889 88.7545C90.1489 88.1868 90.4674 87.7513 90.8444 87.448C91.2257 87.1403 91.7197 86.9865 92.3264 86.9865C92.5257 86.9865 92.7012 87.0017 92.8529 87.032C93.0089 87.0623 93.167 87.1013 93.3274 87.149L93.1324 89.554H92.1704V88.124H92.1639C91.1369 88.124 90.4002 88.8585 89.9539 90.3275V93.077H91.3449V94H87.6659ZM108.748 92.999V94H103.47V92.999H105.667V86.356L103.646 87.591L103.106 86.707L105.81 85.043H106.909V92.999H108.748Z" fill="black"/>
<path d="M31.854 72.121C31.854 73.1197 31.7233 73.9387 31.462 74.578C31.2007 75.2173 30.853 75.712 30.419 76.062C29.985 76.412 29.502 76.657 28.97 76.797C28.438 76.9323 27.9037 77 27.367 77H25.001V67.34H27.206C27.794 67.34 28.3633 67.403 28.914 67.529C29.4693 67.655 29.9663 67.8883 30.405 68.229C30.8483 68.565 31.2007 69.048 31.462 69.678C31.7233 70.3033 31.854 71.1177 31.854 72.121ZM30.146 72.121C30.146 71.351 30.069 70.7327 29.915 70.266C29.7657 69.7993 29.565 69.4447 29.313 69.202C29.061 68.9593 28.7787 68.796 28.466 68.712C28.1533 68.628 27.836 68.586 27.514 68.586H26.625V75.768H27.521C27.857 75.768 28.1813 75.7143 28.494 75.607C28.8067 75.4997 29.0867 75.313 29.334 75.047C29.586 74.781 29.7843 74.4123 29.929 73.941C30.0737 73.465 30.146 72.8583 30.146 72.121ZM36.5875 65.989C36.8955 65.989 37.1429 66.0823 37.3295 66.269C37.5209 66.4557 37.6165 66.689 37.6165 66.969C37.6165 67.249 37.5209 67.4847 37.3295 67.676C37.1429 67.8673 36.8955 67.963 36.5875 67.963C36.2889 67.963 36.0439 67.8673 35.8525 67.676C35.6612 67.4847 35.5655 67.249 35.5655 66.969C35.5655 66.689 35.6612 66.4557 35.8525 66.269C36.0439 66.0823 36.2889 65.989 36.5875 65.989ZM37.6795 69.608V75.852H39.6885V77H33.8995V75.852H36.1115V70.756H33.9695V69.608H37.6795ZM44.7231 75.985C45.2131 75.985 45.6027 75.8987 45.8921 75.726C46.1814 75.5487 46.3261 75.306 46.3261 74.998C46.3261 74.7973 46.2841 74.627 46.2001 74.487C46.1161 74.347 45.9481 74.2163 45.6961 74.095C45.4441 73.9737 45.0614 73.8477 44.5481 73.717C44.0627 73.591 43.6357 73.4417 43.2671 73.269C42.9031 73.0963 42.6207 72.8723 42.4201 72.597C42.2194 72.3217 42.1191 71.967 42.1191 71.533C42.1191 70.8983 42.3827 70.3873 42.9101 70C43.4421 69.608 44.1631 69.412 45.0731 69.412C45.6937 69.412 46.2351 69.4937 46.6971 69.657C47.1591 69.8203 47.5534 70.0233 47.8801 70.266L47.2221 71.253C46.9327 71.0617 46.6154 70.9053 46.2701 70.784C45.9294 70.6627 45.5444 70.602 45.1151 70.602C44.6157 70.602 44.2564 70.6767 44.0371 70.826C43.8224 70.9753 43.7151 71.1737 43.7151 71.421C43.7151 71.6077 43.7687 71.7617 43.8761 71.883C43.9881 72.0043 44.1794 72.1187 44.4501 72.226C44.7207 72.3333 45.1034 72.4547 45.5981 72.59C46.0787 72.7207 46.4964 72.8747 46.8511 73.052C47.2104 73.2293 47.4881 73.465 47.6841 73.759C47.8847 74.0483 47.9851 74.4263 47.9851 74.893C47.9851 75.425 47.8311 75.8613 47.5231 76.202C47.2151 76.538 46.8137 76.7877 46.3191 76.951C45.8244 77.1097 45.2924 77.189 44.7231 77.189C44.0371 77.189 43.4444 77.091 42.9451 76.895C42.4457 76.6943 42.0257 76.4447 41.6851 76.146L42.5181 75.194C42.8074 75.4273 43.1387 75.6187 43.5121 75.768C43.8854 75.9127 44.2891 75.985 44.7231 75.985ZM53.9926 75.901C54.3379 75.901 54.6599 75.8403 54.9586 75.719C55.2573 75.5977 55.5419 75.4437 55.8126 75.257L56.5406 76.265C56.2186 76.5403 55.8266 76.7643 55.3646 76.937C54.9073 77.105 54.4336 77.189 53.9436 77.189C53.1876 77.189 52.5389 77.0303 51.9976 76.713C51.4609 76.391 51.0503 75.943 50.7656 75.369C50.4856 74.7903 50.3456 74.1137 50.3456 73.339C50.3456 72.5877 50.4879 71.918 50.7726 71.33C51.0619 70.7373 51.4773 70.2707 52.0186 69.93C52.5599 69.5847 53.2109 69.412 53.9716 69.412C54.9609 69.412 55.8149 69.7083 56.5336 70.301L55.8126 71.288C55.5233 71.0873 55.2269 70.9357 54.9236 70.833C54.6203 70.7257 54.3123 70.672 53.9996 70.672C53.4116 70.672 52.9333 70.8867 52.5646 71.316C52.1959 71.7453 52.0116 72.4197 52.0116 73.339C52.0116 74.263 52.1983 74.921 52.5716 75.313C52.9449 75.705 53.4186 75.901 53.9926 75.901ZM61.7711 65.989C62.0791 65.989 62.3265 66.0823 62.5131 66.269C62.7045 66.4557 62.8001 66.689 62.8001 66.969C62.8001 67.249 62.7045 67.4847 62.5131 67.676C62.3265 67.8673 62.0791 67.963 61.7711 67.963C61.4725 67.963 61.2275 67.8673 61.0361 67.676C60.8448 67.4847 60.7491 67.249 60.7491 66.969C60.7491 66.689 60.8448 66.4557 61.0361 66.269C61.2275 66.0823 61.4725 65.989 61.7711 65.989ZM62.8631 69.608V75.852H64.8721V77H59.0831V75.852H61.2951V70.756H59.1531V69.608H62.8631ZM70.8237 69.412C71.477 69.412 71.9997 69.573 72.3917 69.895C72.7837 70.2123 73.0683 70.6627 73.2457 71.246C73.423 71.8247 73.5117 72.506 73.5117 73.29C73.5117 74.0413 73.4043 74.711 73.1897 75.299C72.975 75.887 72.6553 76.349 72.2307 76.685C71.8107 77.021 71.288 77.189 70.6627 77.189C69.888 77.189 69.2627 76.916 68.7867 76.37V79.842L67.2187 80.017V69.608H68.5837L68.6817 70.56C68.9617 70.182 69.286 69.8973 69.6547 69.706C70.0233 69.51 70.413 69.412 70.8237 69.412ZM70.3897 70.623C70.0397 70.623 69.7293 70.728 69.4587 70.938C69.1927 71.148 68.9687 71.3953 68.7867 71.68V75.138C69.1553 75.6887 69.643 75.964 70.2497 75.964C70.777 75.964 71.1783 75.7517 71.4537 75.327C71.729 74.9023 71.8667 74.2257 71.8667 73.297C71.8667 72.3497 71.743 71.6683 71.4957 71.253C71.253 70.833 70.8843 70.623 70.3897 70.623ZM78.8612 66.64V74.984C78.8612 75.3247 78.9639 75.5673 79.1692 75.712C79.3792 75.852 79.6499 75.922 79.9812 75.922C80.1912 75.922 80.3919 75.901 80.5832 75.859C80.7792 75.8123 80.9682 75.7517 81.1502 75.677L81.5492 76.769C81.3299 76.881 81.0592 76.979 80.7372 77.063C80.4199 77.147 80.0559 77.189 79.6452 77.189C78.9032 77.189 78.3245 76.979 77.9092 76.559C77.4985 76.139 77.2932 75.5673 77.2932 74.844V67.795H75.0602V66.64H78.8612ZM86.9547 65.989C87.2627 65.989 87.5101 66.0823 87.6967 66.269C87.8881 66.4557 87.9837 66.689 87.9837 66.969C87.9837 67.249 87.8881 67.4847 87.6967 67.676C87.5101 67.8673 87.2627 67.963 86.9547 67.963C86.6561 67.963 86.4111 67.8673 86.2197 67.676C86.0284 67.4847 85.9327 67.249 85.9327 66.969C85.9327 66.689 86.0284 66.4557 86.2197 66.269C86.4111 66.0823 86.6561 65.989 86.9547 65.989ZM88.0467 69.608V75.852H90.0557V77H84.2667V75.852H86.4787V70.756H84.3367V69.608H88.0467ZM92.4023 77V69.608H93.7533L93.8723 70.567C94.1803 70.1937 94.5443 69.909 94.9643 69.713C95.3843 69.5123 95.8159 69.412 96.2593 69.412C96.9499 69.412 97.4656 69.6057 97.8063 69.993C98.1516 70.3803 98.3243 70.9193 98.3243 71.61V77H96.7563V72.387C96.7563 71.7477 96.6909 71.2927 96.5603 71.022C96.4343 70.7467 96.1473 70.609 95.6993 70.609C95.3399 70.609 95.0109 70.721 94.7123 70.945C94.4183 71.1643 94.1709 71.414 93.9703 71.694V77H92.4023ZM106.446 75.187C106.446 75.481 106.49 75.6933 106.579 75.824C106.667 75.9547 106.81 76.0527 107.006 76.118L106.656 77.182C106.292 77.14 105.977 77.0397 105.711 76.881C105.449 76.7223 105.253 76.482 105.123 76.16C104.852 76.5053 104.509 76.7643 104.094 76.937C103.678 77.105 103.235 77.189 102.764 77.189C102.012 77.189 101.42 76.979 100.986 76.559C100.552 76.1343 100.335 75.579 100.335 74.893C100.335 74.1137 100.638 73.514 101.245 73.094C101.851 72.674 102.719 72.464 103.849 72.464H104.906V71.981C104.906 71.5003 104.761 71.1573 104.472 70.952C104.182 70.742 103.779 70.637 103.261 70.637C103.018 70.637 102.724 70.6697 102.379 70.735C102.033 70.7957 101.672 70.8913 101.294 71.022L100.909 69.916C101.371 69.7433 101.823 69.6173 102.267 69.538C102.71 69.454 103.121 69.412 103.499 69.412C104.488 69.412 105.225 69.6313 105.711 70.07C106.201 70.5087 106.446 71.1153 106.446 71.89V75.187ZM103.24 76.034C103.557 76.034 103.867 75.95 104.171 75.782C104.474 75.614 104.719 75.3783 104.906 75.075V73.444H104.038C103.3 73.444 102.773 73.5677 102.456 73.815C102.138 74.0577 101.98 74.3937 101.98 74.823C101.98 75.6303 102.4 76.034 103.24 76.034ZM123.76 75.768V77H117.915V75.768H120.274V68.95L118.146 70.259L117.474 69.16L120.442 67.34H121.828V75.768H123.76Z" fill="black"/>
<rect x="24" y="22" width="262" height="30" rx="4" fill="#EEEEEE"/>
<rect x="24" y="416" width="798" height="35" rx="3" fill="#00ADB5"/>
<path d="M69.926 39.6545L72.227 32.043H73.5335L70.602 41H69.198L66.2665 32.043H67.651L69.926 39.6545ZM77.7079 33.9865C78.6873 33.9865 79.4304 34.3115 79.9374 34.9615C80.4488 35.6115 80.7044 36.4803 80.7044 37.568C80.7044 38.2743 80.5874 38.8983 80.3534 39.44C80.1238 39.9817 79.7858 40.4042 79.3394 40.7075C78.8931 41.0108 78.3449 41.1625 77.6949 41.1625C76.7156 41.1625 75.9681 40.8375 75.4524 40.1875C74.9411 39.5375 74.6854 38.6687 74.6854 37.581C74.6854 36.8703 74.8003 36.2463 75.0299 35.709C75.2639 35.1673 75.6041 34.7448 76.0504 34.4415C76.5011 34.1382 77.0536 33.9865 77.7079 33.9865ZM77.7079 34.981C77.1446 34.981 76.7199 35.1933 76.4339 35.618C76.1479 36.0383 76.0049 36.6927 76.0049 37.581C76.0049 38.4607 76.1458 39.1128 76.4274 39.5375C76.7091 39.9578 77.1316 40.168 77.6949 40.168C78.2583 40.168 78.6808 39.9578 78.9624 39.5375C79.2441 39.1128 79.3849 38.4563 79.3849 37.568C79.3849 36.684 79.2441 36.0318 78.9624 35.6115C78.6808 35.1912 78.2626 34.981 77.7079 34.981ZM85.6458 31.393V39.232C85.6458 39.5613 85.7477 39.7953 85.9513 39.934C86.155 40.0683 86.4172 40.1355 86.7378 40.1355C86.9415 40.1355 87.1343 40.116 87.3163 40.077C87.5027 40.0337 87.6847 39.9752 87.8623 39.9015L88.1873 40.792C87.9967 40.8917 87.7583 40.9783 87.4723 41.052C87.1863 41.1257 86.8635 41.1625 86.5038 41.1625C85.8582 41.1625 85.3447 40.9827 84.9633 40.623C84.5863 40.2633 84.3978 39.7693 84.3978 39.141V32.342H82.3113V31.393H85.6458ZM96.1903 40.649C95.9476 40.805 95.6551 40.9285 95.3128 41.0195C94.9748 41.1148 94.6324 41.1625 94.2858 41.1625C93.5231 41.1625 92.9381 40.9632 92.5308 40.5645C92.1278 40.1658 91.9263 39.648 91.9263 39.011V35.085H90.3728V34.149H91.9263V32.602L93.1743 32.4525V34.149H95.5143L95.3713 35.085H93.1743V38.998C93.1743 39.375 93.2696 39.6588 93.4603 39.8495C93.6553 40.0402 93.9781 40.1355 94.4288 40.1355C94.6801 40.1355 94.9119 40.1073 95.1243 40.051C95.3409 39.9903 95.5403 39.9102 95.7223 39.8105L96.1903 40.649ZM103.472 39.427C103.472 39.7 103.515 39.8993 103.602 40.025C103.688 40.1463 103.825 40.2373 104.011 40.298L103.719 41.156C103.407 41.117 103.134 41.0238 102.9 40.8765C102.67 40.7292 102.501 40.5038 102.393 40.2005C102.146 40.5212 101.834 40.7617 101.457 40.922C101.08 41.0823 100.67 41.1625 100.228 41.1625C99.5392 41.1625 98.9954 40.9675 98.5967 40.5775C98.198 40.1875 97.9987 39.674 97.9987 39.037C97.9987 38.3263 98.276 37.7803 98.8307 37.399C99.3897 37.0133 100.191 36.8205 101.236 36.8205H102.23V36.3005C102.23 35.8282 102.089 35.4923 101.808 35.293C101.53 35.0937 101.143 34.994 100.644 34.994C100.415 34.994 100.144 35.0222 99.8317 35.0785C99.524 35.1348 99.1947 35.2237 98.8437 35.345L98.5252 34.435C98.9455 34.2747 99.3507 34.1598 99.7407 34.0905C100.131 34.0212 100.495 33.9865 100.833 33.9865C101.712 33.9865 102.371 34.188 102.809 34.591C103.251 34.994 103.472 35.5422 103.472 36.2355V39.427ZM100.579 40.2265C100.896 40.2265 101.201 40.1442 101.496 39.9795C101.795 39.8148 102.04 39.5852 102.23 39.2905V37.633H101.32C100.597 37.633 100.083 37.7565 99.7797 38.0035C99.4764 38.2462 99.3247 38.5798 99.3247 39.0045C99.3247 39.8192 99.7429 40.2265 100.579 40.2265ZM106.281 41V40.077H107.321V35.072H106.281V34.149H108.277L108.504 35.7545C108.764 35.1868 109.083 34.7513 109.46 34.448C109.841 34.1403 110.335 33.9865 110.942 33.9865C111.141 33.9865 111.316 34.0017 111.468 34.032C111.624 34.0623 111.782 34.1013 111.943 34.149L111.748 36.554H110.786V35.124H110.779C109.752 35.124 109.015 35.8585 108.569 37.3275V40.077H109.96V41H106.281ZM126.856 39.427C126.856 39.7 126.9 39.8993 126.986 40.025C127.073 40.1463 127.21 40.2373 127.396 40.298L127.103 41.156C126.791 41.117 126.518 41.0238 126.284 40.8765C126.055 40.7292 125.886 40.5038 125.777 40.2005C125.53 40.5212 125.218 40.7617 124.841 40.922C124.464 41.0823 124.055 41.1625 123.613 41.1625C122.924 41.1625 122.38 40.9675 121.981 40.5775C121.583 40.1875 121.383 39.674 121.383 39.037C121.383 38.3263 121.661 37.7803 122.215 37.399C122.774 37.0133 123.576 36.8205 124.62 36.8205H125.615V36.3005C125.615 35.8282 125.474 35.4923 125.192 35.293C124.915 35.0937 124.527 34.994 124.029 34.994C123.799 34.994 123.528 35.0222 123.216 35.0785C122.909 35.1348 122.579 35.2237 122.228 35.345L121.91 34.435C122.33 34.2747 122.735 34.1598 123.125 34.0905C123.515 34.0212 123.879 33.9865 124.217 33.9865C125.097 33.9865 125.756 34.188 126.193 34.591C126.635 34.994 126.856 35.5422 126.856 36.2355V39.427ZM123.964 40.2265C124.28 40.2265 124.586 40.1442 124.88 39.9795C125.179 39.8148 125.424 39.5852 125.615 39.2905V37.633H124.705C123.981 37.633 123.468 37.7565 123.164 38.0035C122.861 38.2462 122.709 38.5798 122.709 39.0045C122.709 39.8192 123.128 40.2265 123.964 40.2265ZM140.581 33.9865C141.187 33.9865 141.673 34.136 142.037 34.435C142.401 34.7297 142.663 35.1457 142.823 35.683C142.984 36.216 143.064 36.8443 143.064 37.568C143.064 38.2613 142.966 38.8788 142.771 39.4205C142.576 39.9622 142.284 40.389 141.894 40.701C141.504 41.0087 141.014 41.1625 140.425 41.1625C139.688 41.1625 139.094 40.9025 138.644 40.3825V43.626L137.396 43.7755V34.149H138.468L138.559 35.072C139.088 34.3483 139.762 33.9865 140.581 33.9865ZM140.262 34.968C139.907 34.968 139.593 35.0763 139.32 35.293C139.047 35.5053 138.821 35.748 138.644 36.021V39.336C138.817 39.5917 139.029 39.7932 139.281 39.9405C139.532 40.0835 139.812 40.155 140.119 40.155C140.657 40.155 141.062 39.947 141.335 39.531C141.608 39.1107 141.744 38.4563 141.744 37.568C141.744 36.6797 141.623 36.0253 141.38 35.605C141.138 35.1803 140.765 34.968 140.262 34.968ZM150.241 39.427C150.241 39.7 150.285 39.8993 150.371 40.025C150.458 40.1463 150.594 40.2373 150.781 40.298L150.488 41.156C150.176 41.117 149.903 41.0238 149.669 40.8765C149.44 40.7292 149.271 40.5038 149.162 40.2005C148.915 40.5212 148.603 40.7617 148.226 40.922C147.849 41.0823 147.44 41.1625 146.998 41.1625C146.309 41.1625 145.765 40.9675 145.366 40.5775C144.968 40.1875 144.768 39.674 144.768 39.037C144.768 38.3263 145.046 37.7803 145.6 37.399C146.159 37.0133 146.961 36.8205 148.005 36.8205H149V36.3005C149 35.8282 148.859 35.4923 148.577 35.293C148.3 35.0937 147.912 34.994 147.414 34.994C147.184 34.994 146.913 35.0222 146.601 35.0785C146.294 35.1348 145.964 35.2237 145.613 35.345L145.295 34.435C145.715 34.2747 146.12 34.1598 146.51 34.0905C146.9 34.0212 147.264 33.9865 147.602 33.9865C148.482 33.9865 149.141 34.188 149.578 34.591C150.02 34.994 150.241 35.5422 150.241 36.2355V39.427ZM147.349 40.2265C147.665 40.2265 147.971 40.1442 148.265 39.9795C148.564 39.8148 148.809 39.5852 149 39.2905V37.633H148.09C147.366 37.633 146.853 37.7565 146.549 38.0035C146.246 38.2462 146.094 38.5798 146.094 39.0045C146.094 39.8192 146.512 40.2265 147.349 40.2265ZM148.818 30.561L149.37 31.5945L146.595 32.719L146.218 32.056L148.818 30.561ZM158.641 33.356L159.005 34.461C158.719 34.552 158.411 34.6105 158.082 34.6365C157.757 34.6625 157.397 34.6755 157.003 34.6755C157.813 35.0395 158.218 35.6158 158.218 36.4045C158.218 37.0805 157.984 37.6373 157.516 38.075C157.052 38.5127 156.409 38.7315 155.586 38.7315C155.369 38.7315 155.185 38.7228 155.033 38.7055C154.881 38.6838 154.736 38.6513 154.598 38.608C154.377 38.764 154.266 38.972 154.266 39.232C154.266 39.3837 154.327 39.5137 154.448 39.622C154.569 39.726 154.806 39.778 155.157 39.778H156.372C156.844 39.778 157.265 39.8603 157.633 40.025C158.006 40.1897 158.298 40.415 158.511 40.701C158.723 40.9827 158.829 41.3012 158.829 41.6565C158.829 42.3368 158.539 42.859 157.958 43.223C157.382 43.5913 156.558 43.7755 155.488 43.7755C154.734 43.7755 154.14 43.6975 153.707 43.5415C153.278 43.3855 152.973 43.1537 152.791 42.846C152.613 42.5383 152.524 42.1527 152.524 41.689H153.649C153.649 41.9447 153.698 42.1548 153.798 42.3195C153.898 42.4885 154.08 42.612 154.344 42.69C154.608 42.7723 154.99 42.8135 155.488 42.8135C156.225 42.8135 156.756 42.7225 157.081 42.5405C157.406 42.3585 157.568 42.092 157.568 41.741C157.568 41.4333 157.432 41.1993 157.159 41.039C156.886 40.883 156.537 40.805 156.112 40.805H154.91C154.294 40.805 153.841 40.675 153.551 40.415C153.265 40.155 153.122 39.8517 153.122 39.505C153.122 39.024 153.373 38.6188 153.876 38.2895C153.1 37.8822 152.713 37.2473 152.713 36.385C152.713 35.917 152.83 35.5032 153.064 35.1435C153.302 34.7795 153.631 34.4957 154.052 34.292C154.472 34.0883 154.955 33.9865 155.501 33.9865C156.069 33.9865 156.535 33.9605 156.899 33.9085C157.263 33.8565 157.577 33.7828 157.841 33.6875C158.105 33.5922 158.372 33.4817 158.641 33.356ZM155.508 34.8705C154.992 34.8705 154.608 35.0135 154.357 35.2995C154.11 35.5812 153.987 35.943 153.987 36.385C153.987 36.8357 154.114 37.2018 154.37 37.4835C154.626 37.7652 155.014 37.906 155.534 37.906C155.993 37.906 156.344 37.7717 156.587 37.503C156.829 37.2343 156.951 36.8573 156.951 36.372C156.951 35.371 156.47 34.8705 155.508 34.8705ZM163.439 30.873C163.699 30.873 163.907 30.9532 164.063 31.1135C164.223 31.2738 164.304 31.4688 164.304 31.6985C164.304 31.9368 164.223 32.1383 164.063 32.303C163.907 32.4633 163.699 32.5435 163.439 32.5435C163.183 32.5435 162.975 32.4633 162.815 32.303C162.659 32.1383 162.581 31.9368 162.581 31.6985C162.581 31.4688 162.659 31.2738 162.815 31.1135C162.975 30.9532 163.183 30.873 163.439 30.873ZM164.369 34.149V40.051H166.273V41H161.034V40.051H163.121V35.098H161.099V34.149H164.369ZM168.575 41V34.149H169.648L169.739 35.072C170.021 34.721 170.363 34.4523 170.766 34.266C171.173 34.0797 171.578 33.9865 171.981 33.9865C172.64 33.9865 173.125 34.1663 173.437 34.526C173.749 34.8813 173.905 35.3775 173.905 36.0145V41H172.657V36.7815C172.657 36.3482 172.631 35.9972 172.579 35.7285C172.532 35.4598 172.43 35.2648 172.274 35.1435C172.118 35.0178 171.882 34.955 171.565 34.955C171.193 34.955 170.855 35.0698 170.551 35.2995C170.248 35.5292 170.005 35.7762 169.823 36.0405V41H168.575ZM181.421 39.427C181.421 39.7 181.464 39.8993 181.551 40.025C181.638 40.1463 181.774 40.2373 181.96 40.298L181.668 41.156C181.356 41.117 181.083 41.0238 180.849 40.8765C180.619 40.7292 180.45 40.5038 180.342 40.2005C180.095 40.5212 179.783 40.7617 179.406 40.922C179.029 41.0823 178.619 41.1625 178.177 41.1625C177.488 41.1625 176.945 40.9675 176.546 40.5775C176.147 40.1875 175.948 39.674 175.948 39.037C175.948 38.3263 176.225 37.7803 176.78 37.399C177.339 37.0133 178.141 36.8205 179.185 36.8205H180.179V36.3005C180.179 35.8282 180.039 35.4923 179.757 35.293C179.48 35.0937 179.092 34.994 178.593 34.994C178.364 34.994 178.093 35.0222 177.781 35.0785C177.473 35.1348 177.144 35.2237 176.793 35.345L176.474 34.435C176.895 34.2747 177.3 34.1598 177.69 34.0905C178.08 34.0212 178.444 33.9865 178.782 33.9865C179.662 33.9865 180.32 34.188 180.758 34.591C181.2 34.994 181.421 35.5422 181.421 36.2355V39.427ZM178.528 40.2265C178.845 40.2265 179.15 40.1442 179.445 39.9795C179.744 39.8148 179.989 39.5852 180.179 39.2905V37.633H179.269C178.546 37.633 178.032 37.7565 177.729 38.0035C177.426 38.2462 177.274 38.5798 177.274 39.0045C177.274 39.8192 177.692 40.2265 178.528 40.2265ZM196.029 31.2435L197.277 31.393V41H196.179L196.075 40.1225C195.589 40.8158 194.944 41.1625 194.138 41.1625C193.548 41.1625 193.061 41.013 192.675 40.714C192.294 40.4107 192.01 39.9903 191.824 39.453C191.637 38.9157 191.544 38.2917 191.544 37.581C191.544 36.8877 191.65 36.2723 191.863 35.735C192.079 35.1933 192.387 34.7665 192.786 34.4545C193.189 34.1425 193.674 33.9865 194.242 33.9865C194.978 33.9865 195.574 34.2465 196.029 34.7665V31.2435ZM194.567 34.968C194.029 34.968 193.613 35.1825 193.319 35.6115C193.028 36.0405 192.883 36.697 192.883 37.581C192.883 38.4607 193.015 39.1128 193.28 39.5375C193.548 39.9622 193.934 40.1745 194.437 40.1745C194.796 40.1745 195.106 40.0727 195.366 39.869C195.631 39.661 195.852 39.4183 196.029 39.141V35.7935C195.852 35.5335 195.637 35.332 195.386 35.189C195.139 35.0417 194.866 34.968 194.567 34.968ZM200.763 37.997C200.797 38.751 201.001 39.2992 201.374 39.6415C201.751 39.9838 202.197 40.155 202.713 40.155C203.055 40.155 203.369 40.103 203.655 39.999C203.941 39.895 204.232 39.7433 204.526 39.544L205.092 40.3305C204.771 40.5862 204.401 40.7898 203.98 40.9415C203.56 41.0888 203.124 41.1625 202.674 41.1625C201.989 41.1625 201.406 41.013 200.925 40.714C200.449 40.4107 200.085 39.9903 199.833 39.453C199.586 38.9157 199.463 38.2917 199.463 37.581C199.463 36.892 199.586 36.2767 199.833 35.735C200.085 35.1933 200.438 34.7665 200.893 34.4545C201.348 34.1425 201.889 33.9865 202.518 33.9865C203.402 33.9865 204.097 34.2898 204.604 34.8965C205.116 35.4988 205.371 36.3243 205.371 37.373C205.371 37.49 205.369 37.6027 205.365 37.711C205.36 37.8193 205.354 37.9147 205.345 37.997H200.763ZM202.531 34.9615C202.041 34.9615 201.636 35.1348 201.315 35.4815C200.995 35.8282 200.81 36.3633 200.763 37.087H204.169C204.156 36.3937 204.004 35.8672 203.714 35.5075C203.428 35.1435 203.033 34.9615 202.531 34.9615ZM220.909 40.649C220.666 40.805 220.374 40.9285 220.032 41.0195C219.694 41.1148 219.351 41.1625 219.005 41.1625C218.242 41.1625 217.657 40.9632 217.25 40.5645C216.847 40.1658 216.645 39.648 216.645 39.011V35.085H215.092V34.149H216.645V32.602L217.893 32.4525V34.149H220.233L220.09 35.085H217.893V38.998C217.893 39.375 217.988 39.6588 218.179 39.8495C218.374 40.0402 218.697 40.1355 219.148 40.1355C219.399 40.1355 219.631 40.1073 219.843 40.051C220.06 39.9903 220.259 39.9102 220.441 39.8105L220.909 40.649ZM228.19 39.427C228.19 39.7 228.234 39.8993 228.32 40.025C228.407 40.1463 228.544 40.2373 228.73 40.298L228.437 41.156C228.125 41.117 227.852 41.0238 227.618 40.8765C227.389 40.7292 227.22 40.5038 227.111 40.2005C226.864 40.5212 226.552 40.7617 226.175 40.922C225.798 41.0823 225.389 41.1625 224.947 41.1625C224.258 41.1625 223.714 40.9675 223.315 40.5775C222.917 40.1875 222.717 39.674 222.717 39.037C222.717 38.3263 222.995 37.7803 223.549 37.399C224.108 37.0133 224.91 36.8205 225.954 36.8205H226.949V36.3005C226.949 35.8282 226.808 35.4923 226.526 35.293C226.249 35.0937 225.861 34.994 225.363 34.994C225.133 34.994 224.862 35.0222 224.55 35.0785C224.243 35.1348 223.913 35.2237 223.562 35.345L223.244 34.435C223.664 34.2747 224.069 34.1598 224.459 34.0905C224.849 34.0212 225.213 33.9865 225.551 33.9865C226.431 33.9865 227.09 34.188 227.527 34.591C227.969 34.994 228.19 35.5422 228.19 36.2355V39.427ZM225.298 40.2265C225.614 40.2265 225.92 40.1442 226.214 39.9795C226.513 39.8148 226.758 39.5852 226.949 39.2905V37.633H226.039C225.315 37.633 224.802 37.7565 224.498 38.0035C224.195 38.2462 224.043 38.5798 224.043 39.0045C224.043 39.8192 224.462 40.2265 225.298 40.2265ZM231 41V40.077H232.04V35.072H231V34.149H232.995L233.223 35.7545C233.483 35.1868 233.801 34.7513 234.178 34.448C234.56 34.1403 235.054 33.9865 235.66 33.9865C235.86 33.9865 236.035 34.0017 236.187 34.032C236.343 34.0623 236.501 34.1013 236.661 34.149L236.466 36.554H235.504V35.124H235.498C234.471 35.124 233.734 35.8585 233.288 37.3275V40.077H234.679V41H231ZM239.737 37.997C239.772 38.751 239.976 39.2992 240.348 39.6415C240.725 39.9838 241.172 40.155 241.687 40.155C242.03 40.155 242.344 40.103 242.63 39.999C242.916 39.895 243.206 39.7433 243.501 39.544L244.066 40.3305C243.746 40.5862 243.375 40.7898 242.955 40.9415C242.534 41.0888 242.099 41.1625 241.648 41.1625C240.964 41.1625 240.381 41.013 239.9 40.714C239.423 40.4107 239.059 39.9903 238.808 39.453C238.561 38.9157 238.437 38.2917 238.437 37.581C238.437 36.892 238.561 36.2767 238.808 35.735C239.059 35.1933 239.412 34.7665 239.867 34.4545C240.322 34.1425 240.864 33.9865 241.492 33.9865C242.376 33.9865 243.072 34.2898 243.579 34.8965C244.09 35.4988 244.346 36.3243 244.346 37.373C244.346 37.49 244.344 37.6027 244.339 37.711C244.335 37.8193 244.328 37.9147 244.32 37.997H239.737ZM241.505 34.9615C241.016 34.9615 240.61 35.1348 240.29 35.4815C239.969 35.8282 239.785 36.3633 239.737 37.087H243.143C243.13 36.3937 242.979 35.8672 242.688 35.5075C242.402 35.1435 242.008 34.9615 241.505 34.9615ZM250.626 31.2435C251.016 31.2435 251.367 31.2782 251.679 31.3475C251.991 31.4125 252.286 31.5057 252.563 31.627L252.173 32.524C251.952 32.4243 251.716 32.3528 251.465 32.3095C251.218 32.2618 250.964 32.238 250.704 32.238C249.777 32.238 249.313 32.6085 249.313 33.3495V34.6625H251.627L251.491 35.6115H249.313V41H248.072V35.6115H246.466V34.6625H248.072V33.356C248.072 32.9313 248.18 32.5608 248.397 32.2445C248.618 31.9282 248.919 31.6833 249.3 31.51C249.686 31.3323 250.128 31.2435 250.626 31.2435ZM259.37 39.427C259.37 39.7 259.413 39.8993 259.5 40.025C259.587 40.1463 259.723 40.2373 259.91 40.298L259.617 41.156C259.305 41.117 259.032 41.0238 258.798 40.8765C258.568 40.7292 258.399 40.5038 258.291 40.2005C258.044 40.5212 257.732 40.7617 257.355 40.922C256.978 41.0823 256.569 41.1625 256.127 41.1625C255.438 41.1625 254.894 40.9675 254.495 40.5775C254.096 40.1875 253.897 39.674 253.897 39.037C253.897 38.3263 254.174 37.7803 254.729 37.399C255.288 37.0133 256.09 36.8205 257.134 36.8205H258.129V36.3005C258.129 35.8282 257.988 35.4923 257.706 35.293C257.429 35.0937 257.041 34.994 256.543 34.994C256.313 34.994 256.042 35.0222 255.73 35.0785C255.422 35.1348 255.093 35.2237 254.742 35.345L254.424 34.435C254.844 34.2747 255.249 34.1598 255.639 34.0905C256.029 34.0212 256.393 33.9865 256.731 33.9865C257.611 33.9865 258.269 34.188 258.707 34.591C259.149 34.994 259.37 35.5422 259.37 36.2355V39.427ZM256.478 40.2265C256.794 40.2265 257.099 40.1442 257.394 39.9795C257.693 39.8148 257.938 39.5852 258.129 39.2905V37.633H257.219C256.495 37.633 255.981 37.7565 255.678 38.0035C255.375 38.2462 255.223 38.5798 255.223 39.0045C255.223 39.8192 255.641 40.2265 256.478 40.2265ZM264.513 40.168C265.011 40.168 265.404 40.077 265.69 39.895C265.98 39.713 266.125 39.466 266.125 39.154C266.125 38.9547 266.086 38.7857 266.008 38.647C265.934 38.504 265.778 38.374 265.54 38.257C265.306 38.1357 264.951 38.0143 264.474 37.893C264.006 37.776 263.599 37.6395 263.252 37.4835C262.91 37.3275 262.643 37.1238 262.453 36.8725C262.266 36.6212 262.173 36.2962 262.173 35.8975C262.173 35.3168 262.416 34.8532 262.901 34.5065C263.386 34.1598 264.03 33.9865 264.832 33.9865C265.395 33.9865 265.885 34.0623 266.301 34.214C266.717 34.3613 267.072 34.5433 267.367 34.76L266.834 35.5725C266.569 35.3992 266.279 35.2562 265.963 35.1435C265.651 35.0265 265.282 34.968 264.858 34.968C264.351 34.968 263.989 35.046 263.772 35.202C263.56 35.3537 263.454 35.5552 263.454 35.8065C263.454 35.9972 263.506 36.1553 263.61 36.281C263.718 36.4023 263.902 36.515 264.162 36.619C264.422 36.7187 264.782 36.8313 265.241 36.957C265.687 37.0783 266.077 37.2213 266.411 37.386C266.745 37.5507 267.003 37.7673 267.185 38.036C267.371 38.3003 267.464 38.6492 267.464 39.0825C267.464 39.5722 267.323 39.9708 267.042 40.2785C266.76 40.5818 266.394 40.805 265.943 40.948C265.497 41.091 265.02 41.1625 264.513 41.1625C263.889 41.1625 263.352 41.0715 262.901 40.8895C262.455 40.7075 262.08 40.4843 261.777 40.22L262.466 39.427C262.73 39.648 263.035 39.8278 263.382 39.9665C263.733 40.1008 264.11 40.168 264.513 40.168Z" fill="#555555"/>
<rect x="24" y="174" width="177" height="30" rx="4" fill="white"/>
<rect x="24.5" y="174.5" width="176" height="29" rx="3.5" stroke="#999999" stroke-opacity="0.8"/>
<rect x="52" y="216" width="770" height="188" fill="white"/>
<rect x="52" y="312" width="770" height="16" fill="#EEEEEE" fill-opacity="0.7"/>
<rect x="24" y="216" width="28" height="188" fill="#EEEEEE" fill-opacity="0.7"/>
<rect x="24" y="312" width="28" height="16" fill="#EEEEEE"/>
<path d="M179.571 186L183.5 189.75L187.429 186L189 186.75L183.5 192L178 186.75L179.571 186Z" fill="black"/>
<path d="M39.753 227.153V228H35.287V227.153H37.146V221.532L35.4355 222.577L34.979 221.829L37.267 220.421H38.1965V227.153H39.753Z" fill="#777777"/>
<path d="M36.9755 236.283C37.4668 236.283 37.8867 236.379 38.235 236.569C38.587 236.756 38.8547 237.011 39.038 237.334C39.2213 237.653 39.313 238.012 39.313 238.412C39.313 238.753 39.2543 239.087 39.137 239.413C39.0197 239.739 38.829 240.082 38.565 240.441C38.3047 240.797 37.9618 241.193 37.5365 241.629C37.1112 242.066 36.5905 242.564 35.9745 243.125H39.489L39.3625 244H34.77V243.169C35.4703 242.498 36.0442 241.93 36.4915 241.464C36.9388 240.995 37.2872 240.592 37.5365 240.254C37.7895 239.913 37.9655 239.604 38.0645 239.325C38.1635 239.046 38.213 238.758 38.213 238.461C38.213 238.054 38.0975 237.734 37.8665 237.499C37.6392 237.264 37.322 237.147 36.915 237.147C36.5557 237.147 36.2587 237.211 36.024 237.339C35.7893 237.468 35.5547 237.671 35.32 237.95L34.616 237.405C34.913 237.035 35.2485 236.756 35.6225 236.569C35.9965 236.379 36.4475 236.283 36.9755 236.283Z" fill="#777777"/>
<path d="M38.9115 271.27V273.365H39.8575V274.196H38.9115V276H37.894L37.8885 274.196H34.7425V273.448L36.948 268.283L37.8335 268.646L35.8535 273.365H37.8995L38.0315 271.27H38.9115Z" fill="#777777"/>
<path d="M37.718 300.283C38.015 300.283 38.2882 300.324 38.5375 300.404C38.7905 300.481 39.0252 300.591 39.2415 300.734L38.829 301.433C38.488 301.22 38.114 301.114 37.707 301.114C37.1497 301.114 36.7133 301.374 36.398 301.895C36.0827 302.416 35.914 303.12 35.892 304.007C36.1303 303.666 36.398 303.42 36.695 303.27C36.9957 303.116 37.3238 303.039 37.6795 303.039C38.0682 303.039 38.4257 303.127 38.752 303.303C39.0783 303.479 39.3387 303.747 39.533 304.106C39.7273 304.462 39.8245 304.909 39.8245 305.448C39.8245 305.998 39.7163 306.475 39.5 306.878C39.2837 307.281 38.9922 307.593 38.6255 307.813C38.2588 308.029 37.8463 308.138 37.388 308.138C36.7647 308.138 36.2642 307.983 35.8865 307.675C35.5125 307.364 35.2412 306.931 35.0725 306.377C34.9038 305.824 34.8195 305.178 34.8195 304.441C34.8195 303.602 34.935 302.87 35.166 302.247C35.397 301.624 35.727 301.141 36.156 300.8C36.5887 300.456 37.1093 300.283 37.718 300.283ZM37.487 303.869C37.1497 303.869 36.8472 303.961 36.5795 304.144C36.3118 304.324 36.0845 304.562 35.8975 304.859C35.9158 305.699 36.0405 306.317 36.2715 306.713C36.5025 307.109 36.8747 307.307 37.388 307.307C37.8427 307.307 38.1818 307.142 38.4055 306.812C38.6328 306.482 38.7465 306.038 38.7465 305.481C38.7465 304.876 38.631 304.456 38.4 304.221C38.169 303.987 37.8647 303.869 37.487 303.869Z" fill="#777777"/>
<path d="M36.959 252.283C37.4467 252.283 37.8665 252.371 38.2185 252.547C38.5742 252.72 38.8473 252.951 39.038 253.24C39.2323 253.526 39.3295 253.842 39.3295 254.186C39.3295 254.652 39.1828 255.044 38.8895 255.363C38.5998 255.679 38.2497 255.879 37.839 255.963C38.1433 255.992 38.4275 256.078 38.6915 256.221C38.9555 256.364 39.1682 256.57 39.3295 256.837C39.4908 257.101 39.5715 257.43 39.5715 257.822C39.5715 258.258 39.4597 258.652 39.236 259.004C39.0123 259.353 38.6988 259.63 38.2955 259.835C37.8958 260.037 37.4283 260.138 36.893 260.138C36.4457 260.138 36.0093 260.055 35.584 259.89C35.1587 259.721 34.7993 259.459 34.506 259.103L35.188 258.531C35.4007 258.784 35.6537 258.973 35.947 259.098C36.244 259.219 36.5465 259.279 36.8545 259.279C37.3568 259.279 37.751 259.149 38.037 258.889C38.3267 258.625 38.4715 258.264 38.4715 257.805C38.4715 257.285 38.3285 256.924 38.0425 256.722C37.7565 256.517 37.3917 256.414 36.948 256.414H36.3045L36.431 255.611H36.882C37.124 255.611 37.3513 255.565 37.564 255.473C37.7767 255.382 37.949 255.242 38.081 255.055C38.213 254.868 38.279 254.63 38.279 254.34C38.279 253.944 38.1452 253.642 37.8775 253.433C37.6098 253.22 37.2835 253.114 36.8985 253.114C36.5758 253.114 36.2917 253.173 36.046 253.29C35.8003 253.404 35.5547 253.576 35.309 253.807L34.737 253.18C35.0633 252.872 35.4135 252.646 35.7875 252.503C36.1615 252.357 36.552 252.283 36.959 252.283Z" fill="#777777"/>
<path d="M39.4065 284.421L39.258 285.235H36.299V287.506C36.5227 287.389 36.7372 287.308 36.9425 287.264C37.1515 287.217 37.3642 287.193 37.5805 287.193C38.1928 287.193 38.6915 287.402 39.0765 287.82C39.4652 288.238 39.6595 288.826 39.6595 289.585C39.6595 290.091 39.5513 290.537 39.335 290.922C39.1187 291.303 38.8125 291.602 38.4165 291.819C38.0242 292.031 37.5622 292.138 37.0305 292.138C36.5575 292.138 36.1358 292.053 35.7655 291.884C35.3988 291.716 35.0707 291.483 34.781 291.186L35.419 290.575C35.859 291.045 36.3907 291.279 37.014 291.279C37.498 291.279 37.8757 291.133 38.147 290.839C38.422 290.546 38.5595 290.123 38.5595 289.569C38.5595 288.982 38.433 288.575 38.18 288.348C37.927 288.117 37.6172 288.001 37.2505 288.001C37.0378 288.001 36.8472 288.023 36.6785 288.067C36.5098 288.108 36.3192 288.17 36.1065 288.254H35.2925V284.421H39.4065Z" fill="#777777"/>
<path d="M36.596 324.116L35.606 323.813L38.5375 317.273H35.0175V316.421H39.6045V317.202L36.596 324.116Z" fill="#777777"/>
<path d="M42.5 33.8999V31.8148C42.5 31.6062 42.4081 31.3976 42.2253 31.2379C42.0425 31.079 41.8025 31 41.5625 31C41.3225 31 41.0825 31.079 40.8997 31.2379L35 36.2963L40.8997 41.3539C41.0825 41.5127 41.3225 41.5926 41.5625 41.5926C41.8025 41.5926 42.0425 41.5127 42.2253 41.3539C42.4081 41.195 42.5 40.9856 42.5 40.7778V38.7497C45.0781 38.8051 47.8953 39.2109 50 42V41.1852C50 37.4101 46.7188 34.3057 42.5 33.8999Z" fill="#555555"/>
<path d="M26.587 137.81V141.079H29.967V141.84H26.587V145.278H30.7535V146H25.755V137.069H30.604L30.4935 137.81H26.587ZM33.2184 146V139.175H33.8944L33.9594 140.169C34.2281 139.814 34.5813 139.539 35.0189 139.344C35.4609 139.149 35.8726 139.051 36.2539 139.051C36.9516 139.051 37.4478 139.229 37.7424 139.584C38.0414 139.94 38.1909 140.432 38.1909 141.06V146H37.3849V141.924C37.3849 141.404 37.3568 140.982 37.3004 140.657C37.2441 140.332 37.1228 140.096 36.9364 139.948C36.7501 139.797 36.4576 139.721 36.0589 139.721C35.7556 139.721 35.4696 139.788 35.2009 139.922C34.9366 140.052 34.7026 140.215 34.4989 140.41C34.2996 140.601 34.1414 140.787 34.0244 140.969V146H33.2184ZM41.8193 139.175V144.056C41.8193 144.542 41.9212 144.897 42.1248 145.122C42.3328 145.343 42.66 145.454 43.1063 145.454C43.531 145.454 43.9297 145.335 44.3023 145.096C44.675 144.854 44.961 144.576 45.1603 144.264V139.175H45.9663V146H45.2903L45.1993 145.045C44.922 145.391 44.584 145.66 44.1853 145.85C43.7867 146.037 43.388 146.13 42.9893 146.13C42.3307 146.13 41.8367 145.959 41.5073 145.616C41.178 145.27 41.0133 144.782 41.0133 144.154V139.175H41.8193ZM48.8083 146V139.175H49.4843L49.5493 140.169C49.8179 139.814 50.1711 139.539 50.6088 139.344C51.0508 139.149 51.4624 139.051 51.8438 139.051C52.5414 139.051 53.0376 139.229 53.3323 139.584C53.6313 139.94 53.7808 140.432 53.7808 141.06V146H52.9748V141.924C52.9748 141.404 52.9466 140.982 52.8903 140.657C52.8339 140.332 52.7126 140.096 52.5263 139.948C52.3399 139.797 52.0474 139.721 51.6488 139.721C51.3454 139.721 51.0594 139.788 50.7908 139.922C50.5264 140.052 50.2924 140.215 50.0888 140.41C49.8894 140.601 49.7313 140.787 49.6143 140.969V146H48.8083ZM59.5282 145.389C59.8922 145.389 60.228 145.333 60.5357 145.22C60.8477 145.107 61.1294 144.962 61.3807 144.784L61.8032 145.33C61.5042 145.582 61.1467 145.779 60.7307 145.922C60.3147 146.061 59.9247 146.13 59.5607 146.13C58.5684 146.13 57.8035 145.811 57.2662 145.174C56.7289 144.537 56.4602 143.684 56.4602 142.613C56.4602 141.937 56.5794 141.331 56.8177 140.793C57.0604 140.256 57.4114 139.831 57.8707 139.519C58.3344 139.207 58.8999 139.051 59.5672 139.051C60.4035 139.051 61.1424 139.309 61.7837 139.825L61.3547 140.403C60.735 139.979 60.1262 139.766 59.5282 139.766C58.8999 139.766 58.3799 140.005 57.9682 140.481C57.5609 140.958 57.3572 141.669 57.3572 142.613C57.3572 143.567 57.5609 144.269 57.9682 144.719C58.3799 145.166 58.8999 145.389 59.5282 145.389ZM66.8811 136.087C67.0891 136.087 67.2538 136.15 67.3751 136.276C67.4964 136.402 67.5571 136.553 67.5571 136.731C67.5571 136.922 67.4964 137.082 67.3751 137.212C67.2538 137.338 67.0891 137.4 66.8811 137.4C66.6861 137.4 66.5279 137.338 66.4066 137.212C66.2853 137.082 66.2246 136.922 66.2246 136.731C66.2246 136.553 66.2853 136.402 66.4066 136.276C66.5279 136.15 66.6861 136.087 66.8811 136.087ZM67.6416 139.175V145.298H69.6241V146H64.6776V145.298H66.8356V139.877H64.7426V139.175H67.6416ZM76.8275 144.654C76.8275 144.932 76.8752 145.135 76.9705 145.265C77.0659 145.391 77.2132 145.484 77.4125 145.545L77.1915 146.137C76.9315 146.098 76.6997 146.002 76.496 145.85C76.2924 145.699 76.1494 145.467 76.067 145.155C75.5817 145.805 74.8797 146.13 73.961 146.13C73.285 146.13 72.7542 145.939 72.3685 145.558C71.9829 145.177 71.79 144.667 71.79 144.03C71.79 143.337 72.0587 142.806 72.596 142.438C73.1377 142.07 73.9242 141.885 74.9555 141.885H75.989V141.222C75.989 140.689 75.8352 140.317 75.5275 140.104C75.2242 139.888 74.8082 139.779 74.2795 139.779C74.0499 139.779 73.7899 139.805 73.4995 139.857C73.2092 139.909 72.8864 139.998 72.531 140.124L72.297 139.461C72.7087 139.309 73.0814 139.203 73.415 139.142C73.753 139.082 74.0802 139.051 74.3965 139.051C75.1982 139.051 75.8027 139.249 76.21 139.643C76.6217 140.033 76.8275 140.551 76.8275 141.196V144.654ZM74.117 145.486C74.4897 145.486 74.8385 145.395 75.1635 145.213C75.4885 145.031 75.7637 144.778 75.989 144.453V142.503H74.858C74.0477 142.503 73.4822 142.646 73.1615 142.932C72.8409 143.214 72.6805 143.588 72.6805 144.056C72.6805 145.01 73.1594 145.486 74.117 145.486ZM84.135 136.302L84.941 136.412V146H84.239L84.135 145.057C83.862 145.447 83.5565 145.725 83.2185 145.889C82.8848 146.05 82.5403 146.13 82.185 146.13C81.5826 146.13 81.0865 145.983 80.6965 145.688C80.3108 145.389 80.0248 144.975 79.8385 144.446C79.6521 143.913 79.559 143.3 79.559 142.607C79.559 141.927 79.663 141.32 79.871 140.787C80.0833 140.25 80.3866 139.827 80.781 139.519C81.1796 139.207 81.6606 139.051 82.224 139.051C82.64 139.051 83.004 139.125 83.316 139.272C83.628 139.415 83.901 139.628 84.135 139.909V136.302ZM82.4255 139.747C81.7928 139.747 81.3075 139.987 80.9695 140.468C80.6358 140.945 80.469 141.656 80.469 142.6C80.469 143.497 80.6206 144.193 80.924 144.687C81.2316 145.181 81.6866 145.428 82.289 145.428C82.7223 145.428 83.0885 145.307 83.3875 145.064C83.6908 144.821 83.94 144.555 84.135 144.264V140.715C83.9356 140.408 83.6865 140.169 83.3875 140C83.0928 139.831 82.7721 139.747 82.4255 139.747ZM90.2789 139.051C91.2149 139.051 91.9147 139.372 92.3784 140.013C92.8464 140.65 93.0804 141.508 93.0804 142.587C93.0804 143.263 92.9742 143.868 92.7619 144.401C92.5495 144.934 92.2332 145.356 91.8129 145.668C91.3969 145.976 90.879 146.13 90.2594 146.13C89.6354 146.13 89.1132 145.983 88.6929 145.688C88.2769 145.389 87.9627 144.975 87.7504 144.446C87.5424 143.913 87.4384 143.298 87.4384 142.6C87.4384 141.903 87.5445 141.287 87.7569 140.754C87.9692 140.221 88.2855 139.805 88.7059 139.506C89.1305 139.203 89.6549 139.051 90.2789 139.051ZM90.2789 139.76C89.6375 139.76 89.15 139.992 88.8164 140.455C88.487 140.919 88.3224 141.634 88.3224 142.6C88.3224 144.477 88.968 145.415 90.2594 145.415C91.5507 145.415 92.1964 144.472 92.1964 142.587C92.1964 141.63 92.0339 140.919 91.7089 140.455C91.3882 139.992 90.9115 139.76 90.2789 139.76ZM107.52 136.302L108.326 136.412V146H107.624L107.52 145.057C107.247 145.447 106.941 145.725 106.603 145.889C106.27 146.05 105.925 146.13 105.57 146.13C104.967 146.13 104.471 145.983 104.081 145.688C103.696 145.389 103.41 144.975 103.223 144.446C103.037 143.913 102.944 143.3 102.944 142.607C102.944 141.927 103.048 141.32 103.256 140.787C103.468 140.25 103.771 139.827 104.166 139.519C104.564 139.207 105.045 139.051 105.609 139.051C106.025 139.051 106.389 139.125 106.701 139.272C107.013 139.415 107.286 139.628 107.52 139.909V136.302ZM105.81 139.747C105.178 139.747 104.692 139.987 104.354 140.468C104.021 140.945 103.854 141.656 103.854 142.6C103.854 143.497 104.005 144.193 104.309 144.687C104.616 145.181 105.071 145.428 105.674 145.428C106.107 145.428 106.473 145.307 106.772 145.064C107.076 144.821 107.325 144.555 107.52 144.264V140.715C107.32 140.408 107.071 140.169 106.772 140C106.478 139.831 106.157 139.747 105.81 139.747ZM115.802 144.654C115.802 144.932 115.85 145.135 115.945 145.265C116.04 145.391 116.188 145.484 116.387 145.545L116.166 146.137C115.906 146.098 115.674 146.002 115.471 145.85C115.267 145.699 115.124 145.467 115.042 145.155C114.556 145.805 113.854 146.13 112.936 146.13C112.26 146.13 111.729 145.939 111.343 145.558C110.957 145.177 110.765 144.667 110.765 144.03C110.765 143.337 111.033 142.806 111.571 142.438C112.112 142.07 112.899 141.885 113.93 141.885H114.964V141.222C114.964 140.689 114.81 140.317 114.502 140.104C114.199 139.888 113.783 139.779 113.254 139.779C113.024 139.779 112.764 139.805 112.474 139.857C112.184 139.909 111.861 139.998 111.506 140.124L111.272 139.461C111.683 139.309 112.056 139.203 112.39 139.142C112.728 139.082 113.055 139.051 113.371 139.051C114.173 139.051 114.777 139.249 115.185 139.643C115.596 140.033 115.802 140.551 115.802 141.196V144.654ZM113.092 145.486C113.464 145.486 113.813 145.395 114.138 145.213C114.463 145.031 114.738 144.778 114.964 144.453V142.503H113.833C113.022 142.503 112.457 142.646 112.136 142.932C111.815 143.214 111.655 143.588 111.655 144.056C111.655 145.01 112.134 145.486 113.092 145.486ZM131.964 145.675C131.739 145.822 131.466 145.935 131.145 146.013C130.824 146.091 130.527 146.13 130.254 146.13C129.57 146.13 129.032 145.948 128.642 145.584C128.257 145.22 128.064 144.763 128.064 144.212V139.851H126.452V139.175H128.064V137.602L128.87 137.504V139.175H131.275L131.164 139.851H128.87V144.193C128.87 144.587 128.976 144.893 129.188 145.109C129.405 145.322 129.767 145.428 130.274 145.428C130.534 145.428 130.774 145.398 130.995 145.337C131.216 145.276 131.422 145.196 131.613 145.096L131.964 145.675ZM139.187 144.654C139.187 144.932 139.235 145.135 139.33 145.265C139.425 145.391 139.573 145.484 139.772 145.545L139.551 146.137C139.291 146.098 139.059 146.002 138.855 145.85C138.652 145.699 138.509 145.467 138.426 145.155C137.941 145.805 137.239 146.13 136.32 146.13C135.644 146.13 135.114 145.939 134.728 145.558C134.342 145.177 134.149 144.667 134.149 144.03C134.149 143.337 134.418 142.806 134.955 142.438C135.497 142.07 136.284 141.885 137.315 141.885H138.348V141.222C138.348 140.689 138.195 140.317 137.887 140.104C137.584 139.888 137.168 139.779 136.639 139.779C136.409 139.779 136.149 139.805 135.859 139.857C135.569 139.909 135.246 139.998 134.89 140.124L134.656 139.461C135.068 139.309 135.441 139.203 135.774 139.142C136.112 139.082 136.44 139.051 136.756 139.051C137.558 139.051 138.162 139.249 138.569 139.643C138.981 140.033 139.187 140.551 139.187 141.196V144.654ZM136.476 145.486C136.849 145.486 137.198 145.395 137.523 145.213C137.848 145.031 138.123 144.778 138.348 144.453V142.503H137.217C136.407 142.503 135.842 142.646 135.521 142.932C135.2 143.214 135.04 143.588 135.04 144.056C135.04 145.01 135.519 145.486 136.476 145.486ZM142.412 146V145.324H143.524V139.857H142.412V139.175H144.141L144.291 140.813C144.559 140.258 144.88 139.825 145.253 139.513C145.63 139.197 146.137 139.038 146.774 139.038C146.951 139.038 147.11 139.051 147.248 139.077C147.391 139.103 147.541 139.136 147.697 139.175L147.606 141.32H146.826V139.987L146.839 139.818C146.787 139.814 146.733 139.812 146.676 139.812C146.126 139.812 145.658 140 145.272 140.377C144.887 140.75 144.572 141.342 144.33 142.152V145.324H145.734V146H142.412ZM150.727 142.912C150.74 143.484 150.842 143.955 151.033 144.323C151.228 144.687 151.483 144.956 151.8 145.129C152.116 145.302 152.461 145.389 152.833 145.389C153.193 145.389 153.511 145.337 153.789 145.233C154.07 145.129 154.365 144.971 154.673 144.758L155.095 145.363C154.779 145.606 154.421 145.794 154.023 145.928C153.628 146.063 153.243 146.13 152.866 146.13C152.237 146.13 151.698 145.983 151.247 145.688C150.801 145.393 150.459 144.982 150.22 144.453C149.982 143.92 149.863 143.3 149.863 142.594C149.863 141.901 149.984 141.287 150.227 140.754C150.469 140.221 150.805 139.805 151.234 139.506C151.668 139.203 152.17 139.051 152.742 139.051C153.57 139.051 154.218 139.348 154.686 139.942C155.154 140.531 155.388 141.335 155.388 142.353C155.388 142.47 155.386 142.577 155.381 142.672C155.377 142.763 155.373 142.843 155.368 142.912H150.727ZM152.762 139.805C152.211 139.805 151.748 140 151.371 140.39C150.998 140.78 150.788 141.378 150.74 142.184H154.621C154.603 141.383 154.424 140.787 154.081 140.397C153.739 140.003 153.299 139.805 152.762 139.805ZM161.876 136.302C162.206 136.302 162.507 136.332 162.78 136.393C163.053 136.454 163.319 136.54 163.579 136.653L163.287 137.309C162.871 137.11 162.383 137.01 161.824 137.01C160.806 137.01 160.297 137.409 160.297 138.206V139.734H162.643L162.559 140.423H160.297V146H159.491V140.423H157.801V139.734H159.491V138.258C159.491 137.847 159.599 137.496 159.816 137.205C160.037 136.911 160.327 136.688 160.687 136.536C161.051 136.38 161.447 136.302 161.876 136.302ZM170.367 144.654C170.367 144.932 170.414 145.135 170.51 145.265C170.605 145.391 170.752 145.484 170.952 145.545L170.731 146.137C170.471 146.098 170.239 146.002 170.035 145.85C169.831 145.699 169.688 145.467 169.606 145.155C169.121 145.805 168.419 146.13 167.5 146.13C166.824 146.13 166.293 145.939 165.908 145.558C165.522 145.177 165.329 144.667 165.329 144.03C165.329 143.337 165.598 142.806 166.135 142.438C166.677 142.07 167.463 141.885 168.495 141.885H169.528V141.222C169.528 140.689 169.374 140.317 169.067 140.104C168.763 139.888 168.347 139.779 167.819 139.779C167.589 139.779 167.329 139.805 167.039 139.857C166.748 139.909 166.425 139.998 166.07 140.124L165.836 139.461C166.248 139.309 166.62 139.203 166.954 139.142C167.292 139.082 167.619 139.051 167.936 139.051C168.737 139.051 169.342 139.249 169.749 139.643C170.161 140.033 170.367 140.551 170.367 141.196V144.654ZM167.656 145.486C168.029 145.486 168.378 145.395 168.703 145.213C169.028 145.031 169.303 144.778 169.528 144.453V142.503H168.397C167.587 142.503 167.021 142.646 166.701 142.932C166.38 143.214 166.22 143.588 166.22 144.056C166.22 145.01 166.698 145.486 167.656 145.486ZM186.496 145.304V146H181.536V145.304H183.746V137.998L181.634 139.272L181.276 138.681L183.87 137.069H184.572V145.304H186.496ZM201.059 136.302L201.865 136.412V146H201.163L201.059 145.057C200.786 145.447 200.48 145.725 200.142 145.889C199.809 146.05 199.464 146.13 199.109 146.13C198.506 146.13 198.01 145.983 197.62 145.688C197.235 145.389 196.949 144.975 196.762 144.446C196.576 143.913 196.483 143.3 196.483 142.607C196.483 141.927 196.587 141.32 196.795 140.787C197.007 140.25 197.31 139.827 197.705 139.519C198.103 139.207 198.584 139.051 199.148 139.051C199.564 139.051 199.928 139.125 200.24 139.272C200.552 139.415 200.825 139.628 201.059 139.909V136.302ZM199.349 139.747C198.717 139.747 198.231 139.987 197.893 140.468C197.56 140.945 197.393 141.656 197.393 142.6C197.393 143.497 197.544 144.193 197.848 144.687C198.155 145.181 198.61 145.428 199.213 145.428C199.646 145.428 200.012 145.307 200.311 145.064C200.615 144.821 200.864 144.555 201.059 144.264V140.715C200.859 140.408 200.61 140.169 200.311 140C200.017 139.831 199.696 139.747 199.349 139.747ZM209.341 144.654C209.341 144.932 209.389 145.135 209.484 145.265C209.58 145.391 209.727 145.484 209.926 145.545L209.705 146.137C209.445 146.098 209.213 146.002 209.01 145.85C208.806 145.699 208.663 145.467 208.581 145.155C208.095 145.805 207.393 146.13 206.475 146.13C205.799 146.13 205.268 145.939 204.882 145.558C204.497 145.177 204.304 144.667 204.304 144.03C204.304 143.337 204.572 142.806 205.11 142.438C205.651 142.07 206.438 141.885 207.469 141.885H208.503V141.222C208.503 140.689 208.349 140.317 208.041 140.104C207.738 139.888 207.322 139.779 206.793 139.779C206.564 139.779 206.304 139.805 206.013 139.857C205.723 139.909 205.4 139.998 205.045 140.124L204.811 139.461C205.222 139.309 205.595 139.203 205.929 139.142C206.267 139.082 206.594 139.051 206.91 139.051C207.712 139.051 208.316 139.249 208.724 139.643C209.135 140.033 209.341 140.551 209.341 141.196V144.654ZM206.631 145.486C207.003 145.486 207.352 145.395 207.677 145.213C208.002 145.031 208.277 144.778 208.503 144.453V142.503H207.372C206.561 142.503 205.996 142.646 205.675 142.932C205.355 143.214 205.194 143.588 205.194 144.056C205.194 145.01 205.673 145.486 206.631 145.486ZM224.444 136.302L225.25 136.412V146H224.548L224.444 145.057C224.171 145.447 223.865 145.725 223.527 145.889C223.193 146.05 222.849 146.13 222.494 146.13C221.891 146.13 221.395 145.983 221.005 145.688C220.619 145.389 220.333 144.975 220.147 144.446C219.961 143.913 219.868 143.3 219.868 142.607C219.868 141.927 219.972 141.32 220.18 140.787C220.392 140.25 220.695 139.827 221.09 139.519C221.488 139.207 221.969 139.051 222.533 139.051C222.949 139.051 223.313 139.125 223.625 139.272C223.937 139.415 224.21 139.628 224.444 139.909V136.302ZM222.734 139.747C222.101 139.747 221.616 139.987 221.278 140.468C220.944 140.945 220.778 141.656 220.778 142.6C220.778 143.497 220.929 144.193 221.233 144.687C221.54 145.181 221.995 145.428 222.598 145.428C223.031 145.428 223.397 145.307 223.696 145.064C223.999 144.821 224.249 144.555 224.444 144.264V140.715C224.244 140.408 223.995 140.169 223.696 140C223.401 139.831 223.081 139.747 222.734 139.747ZM230.574 136.087C230.782 136.087 230.947 136.15 231.068 136.276C231.19 136.402 231.25 136.553 231.25 136.731C231.25 136.922 231.19 137.082 231.068 137.212C230.947 137.338 230.782 137.4 230.574 137.4C230.379 137.4 230.221 137.338 230.1 137.212C229.979 137.082 229.918 136.922 229.918 136.731C229.918 136.553 229.979 136.402 230.1 136.276C230.221 136.15 230.379 136.087 230.574 136.087ZM231.335 139.175V145.298H233.317V146H228.371V145.298H230.529V139.877H228.436V139.175H231.335ZM238.083 145.395C238.664 145.395 239.119 145.285 239.448 145.064C239.782 144.839 239.949 144.544 239.949 144.18C239.949 143.955 239.912 143.76 239.838 143.595C239.769 143.426 239.615 143.276 239.377 143.146C239.143 143.012 238.781 142.886 238.291 142.769C237.802 142.648 237.377 142.514 237.017 142.366C236.662 142.219 236.387 142.026 236.192 141.788C235.997 141.55 235.899 141.233 235.899 140.839C235.899 140.462 236.006 140.141 236.218 139.877C236.435 139.608 236.729 139.405 237.102 139.266C237.479 139.123 237.904 139.051 238.376 139.051C238.909 139.051 239.373 139.123 239.767 139.266C240.166 139.409 240.499 139.582 240.768 139.786L240.391 140.384C240.14 140.206 239.86 140.059 239.552 139.942C239.245 139.825 238.855 139.766 238.382 139.766C237.78 139.766 237.358 139.862 237.115 140.052C236.872 140.243 236.751 140.484 236.751 140.774C236.751 140.999 236.809 141.186 236.926 141.333C237.048 141.476 237.245 141.604 237.518 141.716C237.791 141.825 238.159 141.942 238.623 142.067C239.069 142.184 239.459 142.325 239.793 142.49C240.127 142.655 240.387 142.869 240.573 143.133C240.759 143.398 240.852 143.74 240.852 144.16C240.852 144.641 240.716 145.027 240.443 145.317C240.174 145.603 239.828 145.811 239.403 145.941C238.978 146.067 238.536 146.13 238.077 146.13C237.475 146.13 236.965 146.041 236.549 145.863C236.138 145.686 235.795 145.478 235.522 145.239L236.023 144.648C236.292 144.873 236.601 145.055 236.952 145.194C237.303 145.328 237.68 145.395 238.083 145.395ZM246.606 145.389C246.97 145.389 247.306 145.333 247.614 145.22C247.926 145.107 248.207 144.962 248.459 144.784L248.881 145.33C248.582 145.582 248.225 145.779 247.809 145.922C247.393 146.061 247.003 146.13 246.639 146.13C245.646 146.13 244.882 145.811 244.344 145.174C243.807 144.537 243.538 143.684 243.538 142.613C243.538 141.937 243.657 141.331 243.896 140.793C244.138 140.256 244.489 139.831 244.949 139.519C245.412 139.207 245.978 139.051 246.645 139.051C247.482 139.051 248.22 139.309 248.862 139.825L248.433 140.403C247.813 139.979 247.204 139.766 246.606 139.766C245.978 139.766 245.458 140.005 245.046 140.481C244.639 140.958 244.435 141.669 244.435 142.613C244.435 143.567 244.639 144.269 245.046 144.719C245.458 145.166 245.978 145.389 246.606 145.389ZM253.959 136.087C254.167 136.087 254.332 136.15 254.453 136.276C254.575 136.402 254.635 136.553 254.635 136.731C254.635 136.922 254.575 137.082 254.453 137.212C254.332 137.338 254.167 137.4 253.959 137.4C253.764 137.4 253.606 137.338 253.485 137.212C253.363 137.082 253.303 136.922 253.303 136.731C253.303 136.553 253.363 136.402 253.485 136.276C253.606 136.15 253.764 136.087 253.959 136.087ZM254.72 139.175V145.298H256.702V146H251.756V145.298H253.914V139.877H251.821V139.175H254.72ZM262.105 139.051C262.716 139.051 263.201 139.199 263.561 139.493C263.921 139.788 264.179 140.202 264.335 140.735C264.491 141.264 264.569 141.881 264.569 142.587C264.569 143.272 264.473 143.881 264.283 144.414C264.096 144.947 263.808 145.367 263.418 145.675C263.032 145.978 262.538 146.13 261.936 146.13C261.16 146.13 260.541 145.859 260.077 145.317V148.607L259.271 148.717V139.175H259.934L260.025 140.182C260.268 139.836 260.565 139.561 260.916 139.357C261.271 139.153 261.667 139.051 262.105 139.051ZM261.962 139.74C261.542 139.74 261.171 139.868 260.851 140.124C260.53 140.375 260.272 140.644 260.077 140.93V144.466C260.268 144.748 260.515 144.973 260.818 145.142C261.121 145.311 261.451 145.395 261.806 145.395C263.058 145.395 263.685 144.455 263.685 142.574C263.685 141.669 263.546 140.971 263.269 140.481C262.996 139.987 262.56 139.74 261.962 139.74ZM269.452 136.412V144.453C269.452 144.808 269.564 145.06 269.79 145.207C270.019 145.354 270.307 145.428 270.654 145.428C270.871 145.428 271.074 145.406 271.265 145.363C271.46 145.32 271.657 145.259 271.857 145.181L272.091 145.805C271.922 145.887 271.707 145.961 271.447 146.026C271.187 146.095 270.897 146.13 270.576 146.13C270.039 146.13 269.582 145.985 269.205 145.694C268.832 145.4 268.646 144.986 268.646 144.453V137.114H266.527V136.412H269.452ZM277.344 136.087C277.552 136.087 277.717 136.15 277.838 136.276C277.959 136.402 278.02 136.553 278.02 136.731C278.02 136.922 277.959 137.082 277.838 137.212C277.717 137.338 277.552 137.4 277.344 137.4C277.149 137.4 276.991 137.338 276.869 137.212C276.748 137.082 276.688 136.922 276.688 136.731C276.688 136.553 276.748 136.402 276.869 136.276C276.991 136.15 277.149 136.087 277.344 136.087ZM278.105 139.175V145.298H280.087V146H275.141V145.298H277.299V139.877H275.206V139.175H278.105ZM282.656 146V139.175H283.332L283.397 140.169C283.666 139.814 284.019 139.539 284.456 139.344C284.898 139.149 285.31 139.051 285.691 139.051C286.389 139.051 286.885 139.229 287.18 139.584C287.479 139.94 287.628 140.432 287.628 141.06V146H286.822V141.924C286.822 141.404 286.794 140.982 286.738 140.657C286.682 140.332 286.56 140.096 286.374 139.948C286.188 139.797 285.895 139.721 285.496 139.721C285.193 139.721 284.907 139.788 284.638 139.922C284.374 140.052 284.14 140.215 283.936 140.41C283.737 140.601 283.579 140.787 283.462 140.969V146H282.656ZM295.085 144.654C295.085 144.932 295.133 145.135 295.228 145.265C295.324 145.391 295.471 145.484 295.67 145.545L295.449 146.137C295.189 146.098 294.958 146.002 294.754 145.85C294.55 145.699 294.407 145.467 294.325 145.155C293.84 145.805 293.138 146.13 292.219 146.13C291.543 146.13 291.012 145.939 290.626 145.558C290.241 145.177 290.048 144.667 290.048 144.03C290.048 143.337 290.317 142.806 290.854 142.438C291.396 142.07 292.182 141.885 293.213 141.885H294.247V141.222C294.247 140.689 294.093 140.317 293.785 140.104C293.482 139.888 293.066 139.779 292.537 139.779C292.308 139.779 292.048 139.805 291.757 139.857C291.467 139.909 291.144 139.998 290.789 140.124L290.555 139.461C290.967 139.309 291.339 139.203 291.673 139.142C292.011 139.082 292.338 139.051 292.654 139.051C293.456 139.051 294.061 139.249 294.468 139.643C294.88 140.033 295.085 140.551 295.085 141.196V144.654ZM292.375 145.486C292.748 145.486 293.096 145.395 293.421 145.213C293.746 145.031 294.022 144.778 294.247 144.453V142.503H293.116C292.306 142.503 291.74 142.646 291.419 142.932C291.099 143.214 290.938 143.588 290.938 144.056C290.938 145.01 291.417 145.486 292.375 145.486ZM311.215 145.304V146H306.255V145.304H308.465V137.998L306.353 139.272L305.995 138.681L308.589 137.069H309.291V145.304H311.215Z" fill="black"/>
<path d="M40.7615 193V184.049H41.8925V191.992H45.9745L45.8445 193H40.7615ZM50.6949 182.951C50.9376 182.951 51.1304 183.025 51.2734 183.172C51.4208 183.319 51.4944 183.499 51.4944 183.711C51.4944 183.932 51.4208 184.119 51.2734 184.27C51.1304 184.418 50.9376 184.491 50.6949 184.491C50.4653 184.491 50.2768 184.418 50.1294 184.27C49.9821 184.119 49.9084 183.932 49.9084 183.711C49.9084 183.499 49.9821 183.319 50.1294 183.172C50.2768 183.025 50.4653 182.951 50.6949 182.951ZM51.5659 186.155V192.135H53.4964V193H48.3614V192.135H50.4739V187.02H48.4264V186.155H51.5659ZM55.8963 193V186.155H56.8258L56.9103 187.104C57.1877 186.753 57.5343 186.485 57.9503 186.298C58.3663 186.108 58.7737 186.012 59.1723 186.012C59.844 186.012 60.3315 186.19 60.6348 186.545C60.9425 186.901 61.0963 187.395 61.0963 188.027V193H60.0043V188.833C60.0043 188.365 59.9783 187.988 59.9263 187.702C59.8743 187.416 59.7638 187.206 59.5948 187.072C59.4302 186.938 59.1767 186.87 58.8343 186.87C58.5657 186.87 58.3122 186.929 58.0738 187.046C57.8398 187.163 57.6297 187.31 57.4433 187.488C57.2613 187.661 57.1097 187.837 56.9883 188.014V193H55.8963ZM69.2553 185.427L69.5933 186.454C69.2986 186.545 68.9866 186.602 68.6573 186.623C68.3323 186.645 67.9769 186.656 67.5913 186.656C68.3843 187.02 68.7808 187.594 68.7808 188.378C68.7808 189.054 68.5533 189.611 68.0983 190.049C67.6476 190.487 67.0171 190.705 66.2068 190.705C65.9771 190.705 65.7843 190.695 65.6283 190.673C65.4766 190.651 65.3293 190.619 65.1863 190.575C65.0823 190.649 64.9956 190.747 64.9263 190.868C64.8613 190.985 64.8288 191.108 64.8288 191.238C64.8288 191.403 64.8938 191.54 65.0238 191.648C65.1538 191.756 65.3943 191.81 65.7453 191.81H66.9803C67.4396 191.81 67.8513 191.893 68.2153 192.057C68.5793 192.222 68.8674 192.445 69.0798 192.727C69.2921 193.004 69.3983 193.319 69.3983 193.67C69.3983 194.341 69.1123 194.857 68.5403 195.217C67.9726 195.576 67.1688 195.756 66.1288 195.756C65.4008 195.756 64.8266 195.68 64.4063 195.529C63.9859 195.381 63.6848 195.154 63.5028 194.846C63.3251 194.543 63.2363 194.159 63.2363 193.696H64.2243C64.2243 193.96 64.2763 194.179 64.3803 194.352C64.4843 194.525 64.6728 194.653 64.9458 194.736C65.2188 194.822 65.6109 194.866 66.1223 194.866C66.8763 194.866 67.4266 194.77 67.7733 194.58C68.1199 194.393 68.2933 194.114 68.2933 193.741C68.2933 193.416 68.1459 193.171 67.8513 193.007C67.5566 192.842 67.1883 192.759 66.7463 192.759H65.5243C64.9306 192.759 64.4951 192.629 64.2178 192.369C63.9404 192.109 63.8018 191.81 63.8018 191.472C63.8018 191.004 64.0531 190.606 64.5558 190.276C63.7888 189.869 63.4053 189.239 63.4053 188.385C63.4053 187.921 63.5201 187.512 63.7498 187.156C63.9794 186.797 64.3001 186.515 64.7118 186.311C65.1234 186.108 65.5979 186.006 66.1353 186.006C66.7116 186.006 67.1796 185.982 67.5393 185.934C67.8989 185.887 68.2066 185.82 68.4623 185.733C68.7223 185.646 68.9866 185.544 69.2553 185.427ZM66.1353 186.805C65.5849 186.805 65.1776 186.955 64.9133 187.254C64.6533 187.553 64.5233 187.93 64.5233 188.385C64.5233 188.849 64.6554 189.23 64.9198 189.529C65.1884 189.828 65.6023 189.977 66.1613 189.977C66.6423 189.977 67.0106 189.837 67.2663 189.555C67.5219 189.273 67.6498 188.881 67.6498 188.378C67.6498 187.33 67.1449 186.805 66.1353 186.805ZM72.5782 186.155V191.004C72.5782 191.455 72.6714 191.78 72.8577 191.979C73.044 192.179 73.3344 192.278 73.7287 192.278C74.1057 192.278 74.461 192.172 74.7947 191.96C75.1327 191.743 75.3949 191.488 75.5812 191.193V186.155H76.6732V193H75.7437L75.6527 192.077C75.384 192.424 75.0504 192.69 74.6517 192.876C74.2574 193.059 73.8609 193.15 73.4622 193.15C72.7992 193.15 72.303 192.974 71.9737 192.623C71.6487 192.268 71.4862 191.771 71.4862 191.134V186.155H72.5782ZM84.1821 191.505C84.1821 191.782 84.2276 191.984 84.3186 192.109C84.4096 192.235 84.5504 192.326 84.7411 192.382L84.4746 193.15C84.1799 193.111 83.9221 193.017 83.7011 192.87C83.4801 192.718 83.3198 192.491 83.2201 192.188C82.9731 192.504 82.6633 192.744 82.2906 192.909C81.9223 193.069 81.5171 193.15 81.0751 193.15C80.3904 193.15 79.8509 192.957 79.4566 192.571C79.0623 192.185 78.8651 191.674 78.8651 191.037C78.8651 190.331 79.1403 189.789 79.6906 189.412C80.2409 189.035 81.0361 188.846 82.0761 188.846H83.0836V188.274C83.0836 187.78 82.9384 187.432 82.6481 187.228C82.3621 187.02 81.9634 186.916 81.4521 186.916C81.2268 186.916 80.9624 186.944 80.6591 187C80.3558 187.052 80.0264 187.141 79.6711 187.267L79.3851 186.441C79.8011 186.285 80.1933 186.175 80.5616 186.11C80.9343 186.045 81.2874 186.012 81.6211 186.012C82.4704 186.012 83.1096 186.212 83.5386 186.61C83.9676 187.009 84.1821 187.546 84.1821 188.222V191.505ZM81.3546 192.317C81.6926 192.317 82.0133 192.233 82.3166 192.064C82.6243 191.891 82.8799 191.652 83.0836 191.349V189.587H82.0956C81.3416 189.587 80.8086 189.717 80.4966 189.977C80.1889 190.237 80.0351 190.586 80.0351 191.024C80.0351 191.886 80.4749 192.317 81.3546 192.317ZM92.64 185.427L92.978 186.454C92.6834 186.545 92.3714 186.602 92.042 186.623C91.717 186.645 91.3617 186.656 90.976 186.656C91.769 187.02 92.1655 187.594 92.1655 188.378C92.1655 189.054 91.938 189.611 91.483 190.049C91.0324 190.487 90.4019 190.705 89.5915 190.705C89.3619 190.705 89.169 190.695 89.013 190.673C88.8614 190.651 88.714 190.619 88.571 190.575C88.467 190.649 88.3804 190.747 88.311 190.868C88.246 190.985 88.2135 191.108 88.2135 191.238C88.2135 191.403 88.2785 191.54 88.4085 191.648C88.5385 191.756 88.779 191.81 89.13 191.81H90.365C90.8244 191.81 91.236 191.893 91.6 192.057C91.964 192.222 92.2522 192.445 92.4645 192.727C92.6769 193.004 92.783 193.319 92.783 193.67C92.783 194.341 92.497 194.857 91.925 195.217C91.3574 195.576 90.5535 195.756 89.5135 195.756C88.7855 195.756 88.2114 195.68 87.791 195.529C87.3707 195.381 87.0695 195.154 86.8875 194.846C86.7099 194.543 86.621 194.159 86.621 193.696H87.609C87.609 193.96 87.661 194.179 87.765 194.352C87.869 194.525 88.0575 194.653 88.3305 194.736C88.6035 194.822 88.9957 194.866 89.507 194.866C90.261 194.866 90.8114 194.77 91.158 194.58C91.5047 194.393 91.678 194.114 91.678 193.741C91.678 193.416 91.5307 193.171 91.236 193.007C90.9414 192.842 90.573 192.759 90.131 192.759H88.909C88.3154 192.759 87.8799 192.629 87.6025 192.369C87.3252 192.109 87.1865 191.81 87.1865 191.472C87.1865 191.004 87.4379 190.606 87.9405 190.276C87.1735 189.869 86.79 189.239 86.79 188.385C86.79 187.921 86.9049 187.512 87.1345 187.156C87.3642 186.797 87.6849 186.515 88.0965 186.311C88.5082 186.108 88.9827 186.006 89.52 186.006C90.0964 186.006 90.5644 185.982 90.924 185.934C91.2837 185.887 91.5914 185.82 91.847 185.733C92.107 185.646 92.3714 185.544 92.64 185.427ZM89.52 186.805C88.9697 186.805 88.5624 186.955 88.298 187.254C88.038 187.553 87.908 187.93 87.908 188.385C87.908 188.849 88.0402 189.23 88.3045 189.529C88.5732 189.828 88.987 189.977 89.546 189.977C90.027 189.977 90.3954 189.837 90.651 189.555C90.9067 189.273 91.0345 188.881 91.0345 188.378C91.0345 187.33 90.5297 186.805 89.52 186.805ZM95.729 189.964C95.7593 190.757 95.9673 191.336 96.353 191.7C96.743 192.06 97.2023 192.239 97.731 192.239C98.082 192.239 98.3983 192.187 98.68 192.083C98.9616 191.979 99.2541 191.826 99.5575 191.622L100.071 192.343C99.7546 192.595 99.3906 192.792 98.979 192.935C98.5673 193.078 98.147 193.15 97.718 193.15C97.0506 193.15 96.483 193 96.015 192.701C95.5513 192.402 95.196 191.986 94.949 191.453C94.7063 190.916 94.585 190.294 94.585 189.587C94.585 188.894 94.7063 188.279 94.949 187.741C95.196 187.204 95.5426 186.782 95.989 186.474C96.4396 186.166 96.9683 186.012 97.575 186.012C98.4373 186.012 99.1155 186.311 99.6095 186.909C100.108 187.507 100.357 188.326 100.357 189.366C100.357 189.483 100.353 189.594 100.344 189.698C100.34 189.802 100.335 189.891 100.331 189.964H95.729ZM97.588 186.909C97.081 186.909 96.6563 187.089 96.314 187.449C95.9716 187.809 95.7788 188.365 95.7355 189.119H99.304C99.291 188.387 99.1306 187.837 98.823 187.468C98.5153 187.096 98.1036 186.909 97.588 186.909ZM107.177 186.012C107.394 186.012 107.604 186.06 107.807 186.155C108.011 186.251 108.178 186.435 108.308 186.708C108.438 186.981 108.503 187.38 108.503 187.904V193H107.489V188.079C107.489 187.65 107.463 187.341 107.411 187.15C107.359 186.959 107.209 186.864 106.962 186.864C106.759 186.864 106.555 186.929 106.351 187.059C106.148 187.185 105.953 187.393 105.766 187.683V193H104.746V188.079C104.746 187.65 104.72 187.341 104.668 187.15C104.616 186.959 104.466 186.864 104.219 186.864C104.007 186.864 103.801 186.929 103.602 187.059C103.403 187.185 103.21 187.393 103.023 187.683V193H102.016V186.155H102.874L102.939 186.948C103.125 186.684 103.333 186.463 103.563 186.286C103.797 186.103 104.085 186.012 104.427 186.012C104.687 186.012 104.932 186.075 105.162 186.201C105.392 186.322 105.561 186.561 105.669 186.916C105.855 186.647 106.065 186.431 106.299 186.266C106.533 186.097 106.826 186.012 107.177 186.012Z" fill="#222222"/>
<rect x="55" y="218" width="69" height="12" rx="5" fill="#C2BDFC" fill-opacity="0.5"/>
<rect x="55" y="298" width="69" height="12" rx="5" fill="#C2BDFC" fill-opacity="0.5"/>
<rect x="74" y="250" width="69" height="12" rx="5" fill="#B897FF" fill-opacity="0.5"/>
<rect x="74" y="234" width="69" height="12" rx="5" fill="#B9B7C5" fill-opacity="0.5"/>
<rect x="311" y="218" width="9" height="12" rx="4.5" fill="#686868" fill-opacity="0.5"/>
<rect x="55" y="266" width="9" height="12" rx="4.5" fill="#686868" fill-opacity="0.5"/>
<rect x="146" y="250" width="69" height="12" rx="5" fill="#B9B7C5" fill-opacity="0.5"/>
<rect x="248" y="234" width="69" height="12" rx="5" fill="#B9B7C5" fill-opacity="0.5"/>
<rect x="127" y="218" width="55" height="12" rx="5" fill="#508BFF" fill-opacity="0.5"/>
<rect x="165" y="234" width="80" height="12" rx="5" fill="#508BFF" fill-opacity="0.5"/>
<rect x="339" y="234" width="80" height="12" rx="5" fill="#508BFF" fill-opacity="0.5"/>
<rect x="146" y="234" width="16" height="12" rx="5" fill="#FF5A50" fill-opacity="0.5"/>
<rect x="320" y="234" width="16" height="12" rx="5" fill="#FF5A50" fill-opacity="0.5"/>
<rect x="185" y="218" width="123" height="12" rx="5" fill="#FF8A00" fill-opacity="0.5"/>
<rect x="425" y="234" width="123" height="12" rx="5" fill="#8FFF5A" fill-opacity="0.5"/>
<rect x="127" y="298" width="98" height="12" rx="5" fill="#8FFF5A" fill-opacity="0.5"/>
<rect x="55" y="313" width="2" height="14" rx="1" fill="#DDDDDD"/>
<path d="M359.598 430.936V433.267H362.958V434.877H359.598V437.355H363.651V439H357.302V429.298H363.644L363.413 430.936H359.598ZM365.375 439V431.566H367.307L367.461 432.427C367.792 432.054 368.142 431.776 368.511 431.594C368.879 431.412 369.299 431.321 369.771 431.321C370.405 431.321 370.905 431.515 371.269 431.902C371.633 432.289 371.815 432.835 371.815 433.54V439H369.603V434.177C369.603 433.72 369.551 433.402 369.449 433.225C369.351 433.043 369.164 432.952 368.889 432.952C368.655 432.952 368.431 433.027 368.217 433.176C368.007 433.325 367.797 433.533 367.587 433.799V439H365.375ZM380.783 431.566L378.305 439H375.701L373.195 431.566H375.582L377.031 437.306L378.543 431.566H380.783ZM385.37 427.674C385.752 427.674 386.065 427.793 386.308 428.031C386.55 428.269 386.672 428.565 386.672 428.92C386.672 429.275 386.55 429.573 386.308 429.816C386.065 430.054 385.752 430.173 385.37 430.173C384.982 430.173 384.665 430.054 384.418 429.816C384.175 429.573 384.054 429.275 384.054 428.92C384.054 428.565 384.175 428.269 384.418 428.031C384.665 427.793 384.982 427.674 385.37 427.674ZM386.707 431.566V437.488H388.597V439H382.388V437.488H384.495V433.078H382.458V431.566H386.707ZM396.816 436.858C396.816 437.138 396.853 437.341 396.928 437.467C397.007 437.593 397.133 437.689 397.306 437.754L396.851 439.21C396.412 439.168 396.041 439.072 395.738 438.923C395.439 438.769 395.204 438.538 395.031 438.23C394.746 438.571 394.382 438.825 393.939 438.993C393.496 439.156 393.043 439.238 392.581 439.238C391.816 439.238 391.204 439.021 390.747 438.587C390.294 438.148 390.068 437.586 390.068 436.9C390.068 436.093 390.383 435.47 391.013 435.031C391.648 434.592 392.539 434.373 393.687 434.373H394.688V434.093C394.688 433.332 394.198 432.952 393.218 432.952C392.98 432.952 392.674 432.987 392.301 433.057C391.928 433.122 391.554 433.218 391.181 433.344L390.67 431.874C391.151 431.692 391.65 431.554 392.168 431.461C392.691 431.368 393.157 431.321 393.568 431.321C394.674 431.321 395.491 431.547 396.018 432C396.55 432.448 396.816 433.097 396.816 433.946V436.858ZM393.344 437.656C393.582 437.656 393.832 437.586 394.093 437.446C394.354 437.301 394.553 437.098 394.688 436.837V435.633H394.142C393.526 435.633 393.073 435.729 392.784 435.92C392.495 436.107 392.35 436.382 392.35 436.746C392.35 437.031 392.436 437.255 392.609 437.418C392.786 437.577 393.031 437.656 393.344 437.656ZM399.023 439V437.516H400.003V433.036H399.023V431.566H401.69L402.096 433.239C402.362 432.6 402.7 432.124 403.111 431.811C403.526 431.498 404.032 431.342 404.63 431.342C404.882 431.342 405.106 431.363 405.302 431.405C405.498 431.442 405.682 431.496 405.855 431.566L405.442 434.674H404.056V433.302C403.636 433.377 403.267 433.605 402.95 433.988C402.632 434.366 402.387 434.833 402.215 435.388V437.516H403.685V439H399.023ZM422.623 432.245C422.623 432.94 422.434 433.505 422.056 433.939C421.678 434.368 421.218 434.69 420.677 434.905L423.218 439H420.621L418.521 435.29H417.87V439H415.574V429.298H418.626C419.946 429.298 420.943 429.538 421.615 430.019C422.287 430.5 422.623 431.242 422.623 432.245ZM420.257 432.245C420.257 431.778 420.119 431.44 419.844 431.23C419.573 431.015 419.169 430.908 418.633 430.908H417.87V433.715H418.724C419.223 433.715 419.603 433.598 419.865 433.365C420.126 433.132 420.257 432.758 420.257 432.245ZM426.054 435.927C426.129 436.534 426.327 436.97 426.649 437.236C426.971 437.497 427.368 437.628 427.839 437.628C428.18 437.628 428.509 437.572 428.826 437.46C429.144 437.348 429.449 437.199 429.743 437.012L430.632 438.216C430.282 438.515 429.858 438.76 429.358 438.951C428.864 439.142 428.299 439.238 427.664 439.238C426.815 439.238 426.103 439.07 425.529 438.734C424.955 438.393 424.524 437.927 424.234 437.334C423.945 436.741 423.8 436.06 423.8 435.29C423.8 434.557 423.94 433.892 424.22 433.295C424.5 432.693 424.909 432.215 425.445 431.86C425.987 431.501 426.647 431.321 427.426 431.321C428.136 431.321 428.749 431.473 429.267 431.776C429.79 432.079 430.194 432.516 430.478 433.085C430.768 433.654 430.912 434.338 430.912 435.136C430.912 435.262 430.908 435.397 430.898 435.542C430.894 435.687 430.884 435.815 430.87 435.927H426.054ZM427.426 432.805C427.03 432.805 426.71 432.947 426.467 433.232C426.225 433.517 426.078 433.972 426.026 434.597H428.756C428.752 434.056 428.647 433.622 428.441 433.295C428.236 432.968 427.898 432.805 427.426 432.805ZM435.513 437.656C435.881 437.656 436.178 437.598 436.402 437.481C436.63 437.364 436.745 437.189 436.745 436.956C436.745 436.797 436.7 436.664 436.612 436.557C436.523 436.45 436.353 436.347 436.101 436.249C435.849 436.151 435.475 436.034 434.981 435.899C434.299 435.717 433.744 435.456 433.315 435.115C432.89 434.774 432.678 434.275 432.678 433.617C432.678 432.954 432.953 432.406 433.504 431.972C434.059 431.538 434.859 431.321 435.905 431.321C436.567 431.321 437.144 431.407 437.634 431.58C438.128 431.748 438.555 431.963 438.915 432.224L438.033 433.526C437.725 433.335 437.393 433.183 437.039 433.071C436.684 432.954 436.327 432.896 435.968 432.896C435.258 432.896 434.904 433.087 434.904 433.47C434.904 433.596 434.948 433.706 435.037 433.799C435.13 433.888 435.303 433.981 435.555 434.079C435.807 434.172 436.175 434.289 436.661 434.429C437.141 434.564 437.559 434.721 437.914 434.898C438.273 435.075 438.551 435.313 438.747 435.612C438.943 435.906 439.041 436.296 439.041 436.781C439.041 437.322 438.88 437.777 438.558 438.146C438.236 438.51 437.809 438.783 437.277 438.965C436.745 439.147 436.161 439.238 435.527 439.238C434.808 439.238 434.173 439.135 433.623 438.93C433.072 438.725 432.603 438.454 432.216 438.118L433.329 436.872C433.618 437.096 433.945 437.283 434.309 437.432C434.677 437.581 435.079 437.656 435.513 437.656ZM445.041 431.321C446.012 431.321 446.707 431.676 447.127 432.385C447.547 433.094 447.757 434.053 447.757 435.262C447.757 436.027 447.645 436.711 447.421 437.313C447.197 437.91 446.873 438.382 446.448 438.727C446.024 439.068 445.508 439.238 444.901 439.238C444.178 439.238 443.59 438.979 443.137 438.461V441.87L440.925 442.101V431.566H442.885L442.983 432.399C443.287 432.012 443.618 431.736 443.977 431.573C444.337 431.405 444.691 431.321 445.041 431.321ZM444.355 432.952C444.099 432.952 443.872 433.029 443.676 433.183C443.48 433.337 443.301 433.547 443.137 433.813V436.949C443.291 437.178 443.452 437.346 443.62 437.453C443.793 437.56 443.996 437.614 444.229 437.614C444.621 437.614 444.927 437.437 445.146 437.082C445.366 436.723 445.475 436.125 445.475 435.29C445.475 434.674 445.431 434.198 445.342 433.862C445.254 433.521 445.125 433.286 444.957 433.155C444.789 433.02 444.589 432.952 444.355 432.952ZM452.54 431.321C453.305 431.321 453.956 431.484 454.493 431.811C455.03 432.138 455.44 432.597 455.725 433.19C456.01 433.778 456.152 434.469 456.152 435.262C456.152 436.503 455.835 437.476 455.2 438.181C454.565 438.886 453.679 439.238 452.54 439.238C451.401 439.238 450.515 438.89 449.88 438.195C449.245 437.5 448.928 436.527 448.928 435.276C448.928 434.487 449.07 433.797 449.355 433.204C449.644 432.611 450.057 432.149 450.594 431.818C451.135 431.487 451.784 431.321 452.54 431.321ZM452.54 432.952C452.087 432.952 451.751 433.139 451.532 433.512C451.317 433.881 451.21 434.469 451.21 435.276C451.21 436.097 451.317 436.692 451.532 437.061C451.751 437.43 452.087 437.614 452.54 437.614C452.993 437.614 453.326 437.43 453.541 437.061C453.76 436.692 453.87 436.093 453.87 435.262C453.87 434.459 453.76 433.874 453.541 433.505C453.326 433.136 452.993 432.952 452.54 432.952ZM460.696 437.656C461.065 437.656 461.361 437.598 461.585 437.481C461.814 437.364 461.928 437.189 461.928 436.956C461.928 436.797 461.884 436.664 461.795 436.557C461.707 436.45 461.536 436.347 461.284 436.249C461.032 436.151 460.659 436.034 460.164 435.899C459.483 435.717 458.928 435.456 458.498 435.115C458.074 434.774 457.861 434.275 457.861 433.617C457.861 432.954 458.137 432.406 458.687 431.972C459.243 431.538 460.043 431.321 461.088 431.321C461.751 431.321 462.327 431.407 462.817 431.58C463.312 431.748 463.739 431.963 464.098 432.224L463.216 433.526C462.908 433.335 462.577 433.183 462.222 433.071C461.868 432.954 461.511 432.896 461.151 432.896C460.442 432.896 460.087 433.087 460.087 433.47C460.087 433.596 460.132 433.706 460.22 433.799C460.314 433.888 460.486 433.981 460.738 434.079C460.99 434.172 461.359 434.289 461.844 434.429C462.325 434.564 462.743 434.721 463.097 434.898C463.457 435.075 463.734 435.313 463.93 435.612C464.126 435.906 464.224 436.296 464.224 436.781C464.224 437.322 464.063 437.777 463.741 438.146C463.419 438.51 462.992 438.783 462.46 438.965C461.928 439.147 461.345 439.238 460.71 439.238C459.992 439.238 459.357 439.135 458.806 438.93C458.256 438.725 457.787 438.454 457.399 438.118L458.512 436.872C458.802 437.096 459.128 437.283 459.492 437.432C459.861 437.581 460.262 437.656 460.696 437.656ZM472.801 438.566C472.512 438.753 472.162 438.911 471.751 439.042C471.34 439.173 470.878 439.238 470.365 439.238C469.394 439.238 468.673 438.991 468.202 438.496C467.731 437.997 467.495 437.32 467.495 436.466V433.092H465.934V431.566H467.495V429.956L469.707 429.69V431.566H472.101L471.884 433.092H469.707V436.466C469.707 436.835 469.791 437.098 469.959 437.257C470.127 437.416 470.395 437.495 470.764 437.495C471.025 437.495 471.263 437.465 471.478 437.404C471.697 437.339 471.893 437.257 472.066 437.159L472.801 438.566ZM480.761 436.858C480.761 437.138 480.799 437.341 480.873 437.467C480.953 437.593 481.079 437.689 481.251 437.754L480.796 439.21C480.358 439.168 479.987 439.072 479.683 438.923C479.385 438.769 479.149 438.538 478.976 438.23C478.692 438.571 478.328 438.825 477.884 438.993C477.441 439.156 476.988 439.238 476.526 439.238C475.761 439.238 475.15 439.021 474.692 438.587C474.24 438.148 474.013 437.586 474.013 436.9C474.013 436.093 474.328 435.47 474.958 435.031C475.593 434.592 476.484 434.373 477.632 434.373H478.633V434.093C478.633 433.332 478.143 432.952 477.163 432.952C476.925 432.952 476.62 432.987 476.246 433.057C475.873 433.122 475.5 433.218 475.126 433.344L474.615 431.874C475.096 431.692 475.595 431.554 476.113 431.461C476.636 431.368 477.103 431.321 477.513 431.321C478.619 431.321 479.436 431.547 479.963 432C480.495 432.448 480.761 433.097 480.761 433.946V436.858ZM477.289 437.656C477.527 437.656 477.777 437.586 478.038 437.446C478.3 437.301 478.498 437.098 478.633 436.837V435.633H478.087C477.471 435.633 477.019 435.729 476.729 435.92C476.44 436.107 476.295 436.382 476.295 436.746C476.295 437.031 476.382 437.255 476.554 437.418C476.732 437.577 476.977 437.656 477.289 437.656Z" fill="white"/>
</svg>
