<svg width="534" height="132" viewBox="0 0 534 132" fill="none" xmlns="http://www.w3.org/2000/svg">
<path fill-rule="evenodd" clip-rule="evenodd" d="M0.0117068 42.3242C0.00399881 42.2742 0 42.2229 0 42.1707V37.1707C0 37.0948 0.00845031 37.0209 0.0244611 36.9499C0.16715 35.3867 1.04176 33.9146 2.50456 33.07L58.6218 0.670708C61.0133 -0.710004 64.0712 0.109371 65.4519 2.50083L67.9519 6.83096C69.3326 9.22242 68.5133 12.2804 66.1218 13.6611L20.6471 39.9159L66.1218 66.1707C68.5133 67.5514 69.3327 70.6094 67.952 73.0008L65.452 77.331C64.0713 79.7224 61.0133 80.5418 58.6218 79.1611L2.5114 46.7657C0.874338 45.8206 -0.0260417 44.0895 0.0117068 42.3242ZM144.996 38.0836C144.999 38.1123 145 38.1414 145 38.1707V42.1707C145 42.2081 144.998 42.245 144.994 42.2814C144.936 43.9478 144.047 45.5478 142.496 46.443L86.0009 79.0605C83.6094 80.4412 80.5515 79.6219 79.1707 77.2304L76.6707 72.9003C75.29 70.5088 76.1094 67.4509 78.5009 66.0701L123.826 39.9017L78.6716 13.8318C76.2801 12.4511 75.4607 9.39318 76.8414 7.00171L79.3414 2.67159C80.7221 0.280123 83.7801 -0.539252 86.1716 0.841455L142.51 33.3684C144.232 34.3624 145.138 36.2256 144.996 38.0836ZM117 96.271C117 98.0648 116.045 99.724 114.496 100.621L75.7588 123.068C74.8458 123.597 73.8363 123.805 72.8607 123.725C72.0219 123.72 71.1725 123.502 70.3935 123.05L15.324 91.0766C13.6967 90.1318 12.7968 88.4074 12.8238 86.6468C12.809 86.4901 12.8014 86.3313 12.8014 86.1707V66.5041C12.8014 62.7294 16.8238 60.316 20.1543 62.0923L25.1543 64.7589C26.7836 65.6279 27.8014 67.3242 27.8014 69.1707V81.0005L73.069 107.283L109.513 86.0356C112.839 84.0963 117 86.4967 117 90.355L117 96.271Z" fill="#00ADB5"/>
<path d="M121 66.5844C121 64.7836 121.968 63.122 123.535 62.2343L128.535 59.4009C131.868 57.5121 136 59.9199 136 63.751V105.171C136 107.932 133.761 110.171 131 110.171H126C123.239 110.171 121 107.932 121 105.171V66.5844Z" fill="#00ADB5"/>
<rect x="119" y="103.171" width="19" height="28" rx="5" fill="#00ADB5"/>
<path d="M216.8 28.6C221.467 28.6 225.4 29.2167 228.6 30.45C231.8 31.65 234.8 33.3833 237.6 35.65L231.55 42.85C227.45 39.45 222.717 37.75 217.35 37.75C213.917 37.75 210.75 38.6167 207.85 40.35C204.95 42.0833 202.617 44.9 200.85 48.8C199.117 52.7 198.25 57.9 198.25 64.4C198.25 70.7667 199.083 75.9 200.75 79.8C202.417 83.7 204.683 86.5333 207.55 88.3C210.45 90.0667 213.717 90.95 217.35 90.95C221.05 90.95 224.117 90.35 226.55 89.15C228.983 87.9167 231.133 86.5333 233 85L238.6 92.15C236.3 94.3833 233.383 96.3167 229.85 97.95C226.317 99.55 222.017 100.35 216.95 100.35C211.083 100.35 205.833 98.9833 201.2 96.25C196.567 93.5167 192.9 89.4833 190.2 84.15C187.533 78.7833 186.2 72.2 186.2 64.4C186.2 56.6667 187.583 50.15 190.35 44.85C193.117 39.5167 196.8 35.4833 201.4 32.75C206.033 29.9833 211.167 28.6 216.8 28.6ZM271.011 44.8C278.744 44.8 284.644 47.3167 288.711 52.35C292.778 57.3833 294.811 64.1 294.811 72.5C294.811 78.1 293.878 82.9833 292.011 87.15C290.178 91.3167 287.478 94.5667 283.911 96.9C280.378 99.2 276.061 100.35 270.961 100.35C263.261 100.35 257.361 97.8667 253.261 92.9C249.161 87.9 247.111 81.1333 247.111 72.6C247.111 67.1333 248.028 62.3167 249.861 58.15C251.728 53.95 254.444 50.6833 258.011 48.35C261.578 45.9833 265.911 44.8 271.011 44.8ZM271.011 53.5C266.978 53.5 263.944 55.05 261.911 58.15C259.878 61.2167 258.861 66.0333 258.861 72.6C258.861 79.1667 259.861 84 261.861 87.1C263.894 90.1667 266.928 91.7 270.961 91.7C274.994 91.7 278.011 90.15 280.011 87.05C282.044 83.95 283.061 79.1 283.061 72.5C283.061 66 282.061 61.2167 280.061 58.15C278.061 55.05 275.044 53.5 271.011 53.5ZM340.822 23.75L352.022 25V99H342.172L341.372 92.5C339.572 95 337.422 96.9333 334.922 98.3C332.422 99.6667 329.622 100.35 326.522 100.35C321.989 100.35 318.255 99.2 315.322 96.9C312.422 94.5667 310.255 91.3167 308.822 87.15C307.389 82.9833 306.672 78.1333 306.672 72.6C306.672 67.2333 307.505 62.4667 309.172 58.3C310.839 54.1 313.222 50.8 316.322 48.4C319.422 46 323.155 44.8 327.522 44.8C332.955 44.8 337.389 46.7167 340.822 50.55V23.75ZM330.472 53.4C326.705 53.4 323.772 54.9667 321.672 58.1C319.572 61.2 318.522 66.0333 318.522 72.6C318.522 79.3333 319.472 84.2167 321.372 87.25C323.305 90.25 326.005 91.75 329.472 91.75C332.005 91.75 334.205 91.0167 336.072 89.55C337.939 88.0833 339.522 86.3167 340.822 84.25V59.25C339.522 57.3833 338.005 55.95 336.272 54.95C334.539 53.9167 332.605 53.4 330.472 53.4ZM379.083 76.2C379.416 81.6333 380.933 85.5667 383.633 88C386.366 90.4333 389.649 91.65 393.483 91.65C396.049 91.65 398.433 91.25 400.633 90.45C402.866 89.65 405.099 88.5167 407.333 87.05L412.183 93.75C409.716 95.75 406.833 97.35 403.533 98.55C400.233 99.75 396.699 100.35 392.933 100.35C387.433 100.35 382.783 99.1833 378.983 96.85C375.216 94.5167 372.349 91.2667 370.383 87.1C368.449 82.9333 367.483 78.1167 367.483 72.65C367.483 67.35 368.449 62.6167 370.383 58.45C372.316 54.25 375.083 50.9333 378.683 48.5C382.283 46.0333 386.583 44.8 391.583 44.8C398.583 44.8 404.116 47.15 408.183 51.85C412.283 56.55 414.333 63 414.333 71.2C414.333 72.1 414.299 73 414.233 73.9C414.199 74.7667 414.149 75.5333 414.083 76.2H379.083ZM391.683 53.1C388.183 53.1 385.283 54.35 382.983 56.85C380.683 59.35 379.366 63.25 379.033 68.55H403.483C403.383 63.5833 402.316 59.7667 400.283 57.1C398.283 54.4333 395.416 53.1 391.683 53.1ZM471.594 30V38.85H456.694V90.1H471.594V99H430.094V90.1H444.994V38.85H430.094V30H471.594ZM533.805 96.2C531.871 97.4333 529.555 98.4333 526.855 99.2C524.155 99.9667 521.338 100.35 518.405 100.35C512.271 100.35 507.605 98.7667 504.405 95.6C501.238 92.4 499.655 88.2 499.655 83V54.35H487.905V46.2H499.655V34.4L510.855 33.05V46.2H528.655L527.405 54.35H510.855V82.9C510.855 85.7333 511.555 87.85 512.955 89.25C514.388 90.6167 516.721 91.3 519.955 91.3C521.888 91.3 523.655 91.0667 525.255 90.6C526.888 90.1333 528.388 89.5333 529.755 88.8L533.805 96.2Z" fill="#00ADB5"/>
</svg>
