<svg width="546" height="170" viewBox="0 0 546 170" fill="none" xmlns="http://www.w3.org/2000/svg">
<rect width="170" height="170" rx="52" fill="white"/>
<path fill-rule="evenodd" clip-rule="evenodd" d="M12.0117 61.3242C12.004 61.2742 12 61.2229 12 61.1707V56.1707C12 56.0948 12.0085 56.0209 12.0245 55.9499C12.1671 54.3867 13.0418 52.9146 14.5046 52.07L70.6218 19.6707C73.0133 18.29 76.0712 19.1094 77.4519 21.5008L79.9519 25.831C81.3326 28.2224 80.5133 31.2804 78.1218 32.6611L32.6471 58.9159L78.1218 85.1707C80.5133 86.5514 81.3327 89.6094 79.952 92.0008L77.452 96.331C76.0713 98.7224 73.0133 99.5418 70.6218 98.1611L14.5114 65.7657C12.8743 64.8206 11.974 63.0895 12.0117 61.3242ZM156.996 57.0836C156.999 57.1123 157 57.1414 157 57.1707V61.1707C157 61.2081 156.998 61.245 156.994 61.2814C156.936 62.9478 156.047 64.5478 154.496 65.443L98.0009 98.0605C95.6094 99.4412 92.5515 98.6219 91.1707 96.2304L88.6707 91.9003C87.29 89.5088 88.1094 86.4509 90.5009 85.0701L135.826 58.9017L90.6716 32.8318C88.2801 31.4511 87.4607 28.3932 88.8414 26.0017L91.3414 21.6716C92.7221 19.2801 95.7801 18.4607 98.1716 19.8415L154.51 52.3684C156.232 53.3624 157.138 55.2256 156.996 57.0836ZM129 115.271C129 117.065 128.045 118.724 126.496 119.621L87.7588 142.068C86.8458 142.597 85.8363 142.805 84.8607 142.725C84.0219 142.72 83.1725 142.502 82.3935 142.05L27.324 110.077C25.6967 109.132 24.7968 107.407 24.8238 105.647C24.809 105.49 24.8014 105.331 24.8014 105.171V85.5041C24.8014 81.7294 28.8238 79.316 32.1543 81.0923L37.1543 83.7589C38.7836 84.6279 39.8014 86.3242 39.8014 88.1707V100L85.069 126.283L121.513 105.036C124.839 103.096 129 105.497 129 109.355L129 115.271Z" fill="#00ADB5"/>
<path d="M133 85.5844C133 83.7836 133.968 82.122 135.535 81.2343L140.535 78.4009C143.868 76.5121 148 78.9199 148 82.751V124.171C148 126.932 145.761 129.171 143 129.171H138C135.239 129.171 133 126.932 133 124.171V85.5844Z" fill="#00ADB5"/>
<rect x="131" y="122.171" width="19" height="28" rx="5" fill="#00ADB5"/>
<path d="M228.8 47.6C233.467 47.6 237.4 48.2167 240.6 49.45C243.8 50.65 246.8 52.3833 249.6 54.65L243.55 61.85C239.45 58.45 234.717 56.75 229.35 56.75C225.917 56.75 222.75 57.6167 219.85 59.35C216.95 61.0833 214.617 63.9 212.85 67.8C211.117 71.7 210.25 76.9 210.25 83.4C210.25 89.7667 211.083 94.9 212.75 98.8C214.417 102.7 216.683 105.533 219.55 107.3C222.45 109.067 225.717 109.95 229.35 109.95C233.05 109.95 236.117 109.35 238.55 108.15C240.983 106.917 243.133 105.533 245 104L250.6 111.15C248.3 113.383 245.383 115.317 241.85 116.95C238.317 118.55 234.017 119.35 228.95 119.35C223.083 119.35 217.833 117.983 213.2 115.25C208.567 112.517 204.9 108.483 202.2 103.15C199.533 97.7833 198.2 91.2 198.2 83.4C198.2 75.6667 199.583 69.15 202.35 63.85C205.117 58.5167 208.8 54.4833 213.4 51.75C218.033 48.9833 223.167 47.6 228.8 47.6ZM283.011 63.8C290.744 63.8 296.644 66.3167 300.711 71.35C304.778 76.3833 306.811 83.1 306.811 91.5C306.811 97.1 305.878 101.983 304.011 106.15C302.178 110.317 299.478 113.567 295.911 115.9C292.378 118.2 288.061 119.35 282.961 119.35C275.261 119.35 269.361 116.867 265.261 111.9C261.161 106.9 259.111 100.133 259.111 91.6C259.111 86.1333 260.028 81.3167 261.861 77.15C263.728 72.95 266.444 69.6833 270.011 67.35C273.578 64.9833 277.911 63.8 283.011 63.8ZM283.011 72.5C278.978 72.5 275.944 74.05 273.911 77.15C271.878 80.2167 270.861 85.0333 270.861 91.6C270.861 98.1667 271.861 103 273.861 106.1C275.894 109.167 278.928 110.7 282.961 110.7C286.994 110.7 290.011 109.15 292.011 106.05C294.044 102.95 295.061 98.1 295.061 91.5C295.061 85 294.061 80.2167 292.061 77.15C290.061 74.05 287.044 72.5 283.011 72.5ZM352.822 42.75L364.022 44V118H354.172L353.372 111.5C351.572 114 349.422 115.933 346.922 117.3C344.422 118.667 341.622 119.35 338.522 119.35C333.989 119.35 330.255 118.2 327.322 115.9C324.422 113.567 322.255 110.317 320.822 106.15C319.389 101.983 318.672 97.1333 318.672 91.6C318.672 86.2333 319.505 81.4667 321.172 77.3C322.839 73.1 325.222 69.8 328.322 67.4C331.422 65 335.155 63.8 339.522 63.8C344.955 63.8 349.389 65.7167 352.822 69.55V42.75ZM342.472 72.4C338.705 72.4 335.772 73.9667 333.672 77.1C331.572 80.2 330.522 85.0333 330.522 91.6C330.522 98.3333 331.472 103.217 333.372 106.25C335.305 109.25 338.005 110.75 341.472 110.75C344.005 110.75 346.205 110.017 348.072 108.55C349.939 107.083 351.522 105.317 352.822 103.25V78.25C351.522 76.3833 350.005 74.95 348.272 73.95C346.539 72.9167 344.605 72.4 342.472 72.4ZM391.083 95.2C391.416 100.633 392.933 104.567 395.633 107C398.366 109.433 401.649 110.65 405.483 110.65C408.049 110.65 410.433 110.25 412.633 109.45C414.866 108.65 417.099 107.517 419.333 106.05L424.183 112.75C421.716 114.75 418.833 116.35 415.533 117.55C412.233 118.75 408.699 119.35 404.933 119.35C399.433 119.35 394.783 118.183 390.983 115.85C387.216 113.517 384.349 110.267 382.383 106.1C380.449 101.933 379.483 97.1167 379.483 91.65C379.483 86.35 380.449 81.6167 382.383 77.45C384.316 73.25 387.083 69.9333 390.683 67.5C394.283 65.0333 398.583 63.8 403.583 63.8C410.583 63.8 416.116 66.15 420.183 70.85C424.283 75.55 426.333 82 426.333 90.2C426.333 91.1 426.299 92 426.233 92.9C426.199 93.7667 426.149 94.5333 426.083 95.2H391.083ZM403.683 72.1C400.183 72.1 397.283 73.35 394.983 75.85C392.683 78.35 391.366 82.25 391.033 87.55H415.483C415.383 82.5833 414.316 78.7667 412.283 76.1C410.283 73.4333 407.416 72.1 403.683 72.1ZM483.594 49V57.85H468.694V109.1H483.594V118H442.094V109.1H456.994V57.85H442.094V49H483.594ZM545.805 115.2C543.871 116.433 541.555 117.433 538.855 118.2C536.155 118.967 533.338 119.35 530.405 119.35C524.271 119.35 519.605 117.767 516.405 114.6C513.238 111.4 511.655 107.2 511.655 102V73.35H499.905V65.2H511.655V53.4L522.855 52.05V65.2H540.655L539.405 73.35H522.855V101.9C522.855 104.733 523.555 106.85 524.955 108.25C526.388 109.617 528.721 110.3 531.955 110.3C533.888 110.3 535.655 110.067 537.255 109.6C538.888 109.133 540.388 108.533 541.755 107.8L545.805 115.2Z" fill="#00ADB5"/>
</svg>
