<svg width="170" height="170" viewBox="0 0 170 170" fill="none" xmlns="http://www.w3.org/2000/svg">
<rect width="170" height="170" rx="52" fill="white"/>
<path fill-rule="evenodd" clip-rule="evenodd" d="M12.0117 61.3242C12.004 61.2742 12 61.2229 12 61.1707V56.1707C12 56.0948 12.0085 56.0209 12.0245 55.9499C12.1671 54.3867 13.0418 52.9146 14.5046 52.07L70.6218 19.6707C73.0133 18.29 76.0712 19.1094 77.4519 21.5008L79.9519 25.831C81.3326 28.2224 80.5133 31.2804 78.1218 32.6611L32.6471 58.9159L78.1218 85.1707C80.5133 86.5514 81.3327 89.6094 79.952 92.0008L77.452 96.331C76.0713 98.7224 73.0133 99.5418 70.6218 98.1611L14.5114 65.7657C12.8743 64.8206 11.974 63.0895 12.0117 61.3242ZM156.996 57.0836C156.999 57.1123 157 57.1414 157 57.1707V61.1707C157 61.2081 156.998 61.245 156.994 61.2814C156.936 62.9478 156.047 64.5478 154.496 65.443L98.0009 98.0605C95.6094 99.4412 92.5515 98.6219 91.1707 96.2304L88.6707 91.9003C87.29 89.5088 88.1094 86.4509 90.5009 85.0701L135.826 58.9017L90.6716 32.8318C88.2801 31.4511 87.4607 28.3932 88.8414 26.0017L91.3414 21.6716C92.7221 19.2801 95.7801 18.4607 98.1716 19.8415L154.51 52.3684C156.232 53.3624 157.138 55.2256 156.996 57.0836ZM129 115.271C129 117.065 128.045 118.724 126.496 119.621L87.7588 142.068C86.8458 142.597 85.8363 142.805 84.8607 142.725C84.0219 142.72 83.1725 142.502 82.3935 142.05L27.324 110.077C25.6967 109.132 24.7968 107.407 24.8238 105.647C24.809 105.49 24.8014 105.331 24.8014 105.171V85.5041C24.8014 81.7294 28.8238 79.316 32.1543 81.0923L37.1543 83.7589C38.7836 84.6279 39.8014 86.3242 39.8014 88.1707V100L85.069 126.283L121.513 105.036C124.839 103.096 129 105.497 129 109.355L129 115.271Z" fill="#00ADB5"/>
<path d="M133 85.5844C133 83.7836 133.968 82.122 135.535 81.2343L140.535 78.4009C143.868 76.5121 148 78.9199 148 82.751V124.171C148 126.932 145.761 129.171 143 129.171H138C135.239 129.171 133 126.932 133 124.171V85.5844Z" fill="#00ADB5"/>
<rect x="131" y="122.171" width="19" height="28" rx="5" fill="#00ADB5"/>
</svg>
