<svg width="146" height="132" viewBox="0 0 146 132" fill="none" xmlns="http://www.w3.org/2000/svg">
<path fill-rule="evenodd" clip-rule="evenodd" d="M0.0117068 42.3242C0.00399881 42.2742 0 42.2229 0 42.1707V37.1707C0 37.0948 0.00845031 37.0209 0.0244611 36.9499C0.16715 35.3867 1.04176 33.9146 2.50456 33.07L58.6218 0.670708C61.0133 -0.710004 64.0712 0.109371 65.4519 2.50083L67.9519 6.83096C69.3326 9.22242 68.5133 12.2804 66.1218 13.6611L20.6471 39.9159L66.1218 66.1707C68.5133 67.5514 69.3327 70.6094 67.952 73.0008L65.452 77.331C64.0713 79.7224 61.0133 80.5418 58.6218 79.1611L2.5114 46.7657C0.874338 45.8206 -0.0260417 44.0895 0.0117068 42.3242ZM144.996 38.0836C144.999 38.1123 145 38.1414 145 38.1707V42.1707C145 42.2081 144.998 42.245 144.994 42.2814C144.936 43.9478 144.047 45.5478 142.496 46.443L86.0009 79.0605C83.6094 80.4412 80.5515 79.6219 79.1707 77.2304L76.6707 72.9003C75.29 70.5088 76.1094 67.4509 78.5009 66.0701L123.826 39.9017L78.6716 13.8318C76.2801 12.4511 75.4607 9.39318 76.8414 7.00171L79.3414 2.67159C80.7221 0.280123 83.7801 -0.539252 86.1716 0.841455L142.51 33.3684C144.232 34.3624 145.138 36.2256 144.996 38.0836ZM117 96.271C117 98.0648 116.045 99.724 114.496 100.621L75.7588 123.068C74.8458 123.597 73.8363 123.805 72.8607 123.725C72.0219 123.72 71.1725 123.502 70.3935 123.05L15.324 91.0766C13.6967 90.1318 12.7968 88.4074 12.8238 86.6468C12.809 86.4901 12.8014 86.3313 12.8014 86.1707V66.5041C12.8014 62.7294 16.8238 60.316 20.1543 62.0923L25.1543 64.7589C26.7836 65.6279 27.8014 67.3242 27.8014 69.1707V81.0005L73.069 107.283L109.513 86.0356C112.839 84.0963 117 86.4967 117 90.355L117 96.271Z" fill="#00ADB5"/>
<path d="M121 66.5844C121 64.7836 121.968 63.122 123.535 62.2343L128.535 59.4009C131.868 57.5121 136 59.9199 136 63.751V105.171C136 107.932 133.761 110.171 131 110.171H126C123.239 110.171 121 107.932 121 105.171V66.5844Z" fill="#00ADB5"/>
<rect x="119" y="103.171" width="19" height="28" rx="5" fill="#00ADB5"/>
</svg>
